<svg width="74" height="74" viewBox="0 0 74 74" fill="none" xmlns="http://www.w3.org/2000/svg">
<path d="M0 34.722H17.9484C17.6415 47.8029 13.9314 49.2877 9.27168 49.7115L7.47475 49.9343V64.3179L9.546 64.2069C15.6308 63.8646 22.3581 62.7677 26.8463 57.227C30.7806 52.3699 32.5152 44.4347 32.5152 32.2535V9.68164H0V34.722Z" fill="#D9E4EB"/>
<path d="M41.4844 9.68164V34.722H59.1932C58.8863 47.8029 55.2962 49.2877 50.6365 49.7115L48.9591 49.9343V64.3179L50.9108 64.2069C56.9956 63.8646 63.783 62.7677 68.2713 57.227C72.2052 52.3699 73.9995 44.4347 73.9995 32.2535V9.68164H41.4844Z" fill="#D9E4EB"/>
</svg>
