<svg width="21" height="17" viewBox="0 0 21 17" fill="none" xmlns="http://www.w3.org/2000/svg">
<path d="M18.4712 0H2.45192C1.09993 0 0 1.09993 0 2.45192V4.47456L8.99819 11.1675C9.43582 11.493 9.94868 11.6558 10.4615 11.6558C10.9744 11.6558 11.4873 11.4931 11.9249 11.1675L20.9231 4.47456V2.45192C20.9231 1.09993 19.8231 0 18.4712 0ZM19.2885 3.6532L10.9494 9.85591C10.6576 10.0729 10.2655 10.0729 9.97377 9.85591L1.63462 3.6532V2.45192C1.63462 2.00126 2.00126 1.63462 2.45192 1.63462H18.4712C18.9218 1.63462 19.2885 2.00126 19.2885 2.45192V3.6532ZM19.2885 7.7276L20.9231 6.51178V14.5481C20.9231 15.9001 19.8231 17 18.4712 17H2.45192C1.09993 17 0 15.9001 0 14.5481V6.51178L1.63462 7.7276V14.5481C1.63462 14.9987 2.00126 15.3654 2.45192 15.3654H18.4712C18.9218 15.3654 19.2885 14.9987 19.2885 14.5481V7.7276Z" fill="#191919"/>
</svg>
