<svg width="25" height="17" viewBox="0 0 25 17" fill="none" xmlns="http://www.w3.org/2000/svg">
<path d="M24.4944 0H0V16.3298H24.4944V0Z" fill="#F0F0F0"/>
<path d="M13.7781 0H10.7163V6.63387H0V9.69566H10.7163V16.3295H13.7781V9.69566H24.4944V6.63387H13.7781V0Z" fill="#D80027"/>
<path d="M18.8418 11.0049L24.4973 14.1469V11.0049H18.8418Z" fill="#0052B4"/>
<path d="M14.9102 11.0049L24.495 16.3297V14.824L17.6206 11.0049H14.9102Z" fill="#0052B4"/>
<path d="M21.9419 16.3297L14.9102 12.4229V16.3297H21.9419Z" fill="#0052B4"/>
<path d="M14.9093 11.0049L24.494 16.3297V14.824L17.6197 11.0049H14.9093Z" fill="#F0F0F0"/>
<path d="M14.9093 11.0049L24.494 16.3297V14.824L17.6197 11.0049H14.9093Z" fill="#D80027"/>
<path d="M4.32197 11.0049L0 13.406V11.0049H4.32197Z" fill="#0052B4"/>
<path d="M9.58499 11.6816V16.3294H1.21973L9.58499 11.6816Z" fill="#0052B4"/>
<path d="M6.87436 11.0049L0 14.824V16.3297L9.58477 11.0049H6.87436Z" fill="#D80027"/>
<path d="M5.65548 5.32509L0 2.18311V5.32509H5.65548Z" fill="#0052B4"/>
<path d="M9.58477 5.32485L0 0V1.50574L6.87436 5.32485H9.58477Z" fill="#0052B4"/>
<path d="M2.55267 0L9.58438 3.90686V0H2.55267Z" fill="#0052B4"/>
<path d="M9.58477 5.32485L0 0V1.50574L6.87436 5.32485H9.58477Z" fill="#F0F0F0"/>
<path d="M9.58477 5.32485L0 0V1.50574L6.87436 5.32485H9.58477Z" fill="#D80027"/>
<path d="M20.1729 5.32495L24.4949 2.92383V5.32495H20.1729Z" fill="#0052B4"/>
<path d="M14.9102 4.64776V0H23.2755L14.9102 4.64776Z" fill="#0052B4"/>
<path d="M17.6197 5.32485L24.494 1.50574V0L14.9093 5.32485H17.6197Z" fill="#D80027"/>
</svg>
