<svg width="27" height="18" viewBox="0 0 27 18" fill="none" xmlns="http://www.w3.org/2000/svg">
<path d="M26.3249 18.0002L0.461863 18.0002C0.206813 18.0002 0 17.7934 0 17.5383L0 0.912058C0 0.657008 0.206813 0.450195 0.461863 0.450195L26.325 0.450195C26.58 0.450195 26.7868 0.657008 26.7868 0.912058L26.7868 17.5383C26.7868 17.7934 26.58 18.0002 26.3249 18.0002Z" fill="#F5F5F5"/>
<path d="M26.7868 1.80026L0 1.80026L0 0.912058C0 0.657008 0.206813 0.450195 0.461863 0.450195L26.325 0.450195C26.58 0.450195 26.7868 0.657008 26.7868 0.912058L26.7868 1.80026Z" fill="#FF4B55"/>
<path d="M26.7868 5.85059L0 5.85059L0 7.2006L26.7868 7.2006V5.85059Z" fill="#FF4B55"/>
<path d="M26.7868 3.15039L0 3.15039L0 4.5004L26.7868 4.5004V3.15039Z" fill="#FF4B55"/>
<path d="M26.7868 9.90036L0.461863 9.90036C0.206813 9.90036 0 9.69354 0 9.43849L0 8.55029L26.7868 8.55029V9.90036Z" fill="#FF4B55"/>
<path d="M26.7868 13.9502L0 13.9502L0 15.3002L26.7868 15.3002V13.9502Z" fill="#FF4B55"/>
<path d="M26.3249 18.0004L0.461863 18.0004C0.206813 18.0004 0 17.7936 0 17.5385L0 16.6504L26.7868 16.6504V17.5386C26.7868 17.7936 26.58 18.0004 26.3249 18.0004Z" fill="#FF4B55"/>
<path d="M26.7868 11.25L0 11.25L0 12.6L26.7868 12.6V11.25Z" fill="#FF4B55"/>
<path d="M12.0079 0.450195L0.461863 0.450195C0.206813 0.450195 0 0.656956 0 0.912005L0 9.43826C0 9.69331 0.206813 9.90012 0.461863 9.90012L12.0079 9.90012C12.263 9.90012 12.4698 9.69331 12.4698 9.43826L12.4698 0.912005C12.4697 0.656956 12.2629 0.450195 12.0079 0.450195Z" fill="#41479B"/>
<path d="M1.30026 1.50927L1.40249 1.81585L1.72566 1.81831C1.76752 1.81868 1.78483 1.87204 1.75119 1.89689L1.49122 2.0889L1.58875 2.397C1.60141 2.43686 1.55594 2.46993 1.52188 2.44555L1.25899 2.25768L0.996088 2.4456C0.962029 2.46993 0.916669 2.43692 0.929225 2.39705L1.02675 2.08895L0.766778 1.89694C0.733138 1.87204 0.750455 1.81873 0.792309 1.81836L1.11548 1.8159L1.21771 1.50932C1.23089 1.46956 1.28698 1.46956 1.30026 1.50927Z" fill="#F5F5F5"/>
<path d="M1.30026 3.11323L1.40249 3.41982L1.72566 3.42227C1.76752 3.42264 1.78483 3.47601 1.75119 3.50086L1.49122 3.69286L1.58875 4.00096C1.60141 4.04083 1.55594 4.07389 1.52188 4.04951L1.25899 3.86164L0.996088 4.04957C0.962029 4.07389 0.916669 4.04088 0.929225 4.00102L1.02675 3.69292L0.766778 3.50091C0.733138 3.47601 0.750455 3.42269 0.792309 3.42233L1.11548 3.41987L1.21771 3.11328C1.23089 3.07358 1.28698 3.07358 1.30026 3.11323Z" fill="#F5F5F5"/>
<path d="M1.30026 4.71626L1.40249 5.02284L1.72566 5.0253C1.76752 5.02567 1.78483 5.07903 1.75119 5.10388L1.49122 5.29589L1.58875 5.60399C1.60141 5.64386 1.55594 5.67692 1.52188 5.65254L1.25899 5.46467L0.996088 5.65259C0.962029 5.67692 0.916669 5.64391 0.929225 5.60404L1.02675 5.29594L0.766778 5.10394C0.733138 5.07903 0.750455 5.02572 0.792309 5.02535L1.11548 5.0229L1.21771 4.71631C1.23089 4.6766 1.28698 4.6766 1.30026 4.71626Z" fill="#F5F5F5"/>
<path d="M1.30026 6.32079L1.40249 6.62737L1.72566 6.62983C1.76752 6.6302 1.78483 6.68356 1.75119 6.70841L1.49122 6.90042L1.58875 7.20852C1.60141 7.24839 1.55594 7.28145 1.52188 7.25707L1.25899 7.0692L0.996088 7.25712C0.962029 7.28145 0.916669 7.24844 0.929225 7.20857L1.02675 6.90047L0.766778 6.70847C0.733138 6.68356 0.750455 6.63025 0.792309 6.62989L1.11548 6.62743L1.21771 6.32084C1.23089 6.28108 1.28698 6.28108 1.30026 6.32079Z" fill="#F5F5F5"/>
<path d="M1.30026 7.92435L1.40249 8.23093L1.72566 8.23339C1.76752 8.23375 1.78483 8.28712 1.75119 8.31197L1.49122 8.50398L1.58875 8.81208C1.60141 8.85194 1.55594 8.88501 1.52188 8.86063L1.25899 8.67275L0.996088 8.86068C0.962029 8.88501 0.916669 8.85199 0.929225 8.81213L1.02675 8.50403L0.766778 8.31202C0.733138 8.28712 0.750455 8.23381 0.792309 8.23344L1.11548 8.23098L1.21771 7.9244C1.23089 7.88458 1.28698 7.88458 1.30026 7.92435Z" fill="#F5F5F5"/>
<path d="M2.54245 2.29537L2.64468 2.60195L2.96785 2.60441C3.0097 2.60478 3.02702 2.65814 2.99338 2.68299L2.73341 2.875L2.83093 3.1831C2.84359 3.22296 2.79813 3.25603 2.76407 3.23165L2.50117 3.04372L2.23828 3.23165C2.20422 3.25598 2.15886 3.22296 2.17141 3.1831L2.26893 2.875L2.00897 2.68299C1.97533 2.65809 1.99264 2.60478 2.0345 2.60441L2.35766 2.60195L2.45989 2.29537C2.47303 2.25571 2.52922 2.25571 2.54245 2.29537Z" fill="#F5F5F5"/>
<path d="M2.54245 3.89892L2.64468 4.20551L2.96785 4.20796C3.0097 4.20833 3.02702 4.2617 2.99338 4.28655L2.73341 4.47855L2.83093 4.78665C2.84359 4.82652 2.79813 4.85958 2.76407 4.8352L2.50117 4.64728L2.23828 4.8352C2.20422 4.85953 2.15886 4.82657 2.17141 4.78665L2.26893 4.47855L2.00897 4.28655C1.97533 4.26164 1.99264 4.20833 2.0345 4.20796L2.35766 4.20551L2.45989 3.89892C2.47303 3.85921 2.52922 3.85921 2.54245 3.89892Z" fill="#F5F5F5"/>
<path d="M2.54245 5.50341L2.64468 5.81L2.96785 5.81246C3.0097 5.81282 3.02702 5.86619 2.99338 5.89104L2.73341 6.08305L2.83093 6.39115C2.84359 6.43101 2.79813 6.46408 2.76407 6.4397L2.50117 6.25177L2.23828 6.4397C2.20422 6.46402 2.15886 6.43101 2.17141 6.39115L2.26893 6.08305L2.00897 5.89104C1.97533 5.86613 1.99264 5.81282 2.0345 5.81246L2.35766 5.81L2.45989 5.50341C2.47303 5.46371 2.52922 5.46371 2.54245 5.50341Z" fill="#F5F5F5"/>
<path d="M2.54245 7.10689L2.64468 7.41347L2.96785 7.41593C3.0097 7.4163 3.02702 7.46966 2.99338 7.49451L2.73341 7.68652L2.83093 7.99462C2.84359 8.03449 2.79813 8.06755 2.76407 8.04317L2.50117 7.85525L2.23828 8.04317C2.20422 8.0675 2.15886 8.03449 2.17141 7.99462L2.26893 7.68652L2.00897 7.49451C1.97533 7.46961 1.99264 7.4163 2.0345 7.41593L2.35766 7.41347L2.45989 7.10689C2.47303 7.06723 2.52922 7.06723 2.54245 7.10689Z" fill="#F5F5F5"/>
<path d="M3.79147 1.50927L3.8937 1.81586L4.21687 1.81832C4.25873 1.81868 4.27604 1.87205 4.2424 1.8969L3.98244 2.0889L4.07996 2.397C4.09262 2.43687 4.04715 2.46994 4.01309 2.44556L3.7502 2.25763L3.4873 2.44556C3.45324 2.46988 3.40788 2.43687 3.42044 2.397L3.51796 2.0889L3.25799 1.8969C3.22435 1.87199 3.24167 1.81868 3.28352 1.81832L3.60669 1.81586L3.70892 1.50927C3.7221 1.46956 3.77824 1.46956 3.79147 1.50927Z" fill="#F5F5F5"/>
<path d="M3.79147 3.11373L3.8937 3.42031L4.21687 3.42277C4.25873 3.42314 4.27604 3.4765 4.2424 3.50135L3.98244 3.69336L4.07996 4.00146C4.09262 4.04132 4.04715 4.07439 4.01309 4.05001L3.7502 3.86208L3.4873 4.05001C3.45324 4.07434 3.40788 4.04132 3.42044 4.00146L3.51796 3.69336L3.25799 3.50135C3.22435 3.47645 3.24167 3.42314 3.28352 3.42277L3.60669 3.42031L3.70892 3.11373C3.7221 3.07407 3.77824 3.07407 3.79147 3.11373Z" fill="#F5F5F5"/>
<path d="M3.79147 4.71627L3.8937 5.02285L4.21687 5.02531C4.25873 5.02568 4.27604 5.07904 4.2424 5.10389L3.98244 5.2959L4.07996 5.604C4.09262 5.64386 4.04715 5.67693 4.01309 5.65255L3.7502 5.46462L3.4873 5.65255C3.45324 5.67688 3.40788 5.64386 3.42044 5.604L3.51796 5.2959L3.25799 5.10389C3.22435 5.07899 3.24167 5.02568 3.28352 5.02531L3.60669 5.02285L3.70892 4.71627C3.7221 4.67661 3.77824 4.67661 3.79147 4.71627Z" fill="#F5F5F5"/>
<path d="M3.79147 6.3208L3.8937 6.62738L4.21687 6.62984C4.25873 6.63021 4.27604 6.68357 4.2424 6.70842L3.98244 6.90043L4.07996 7.20853C4.09262 7.24839 4.04715 7.28146 4.01309 7.25708L3.7502 7.06915L3.4873 7.25708C3.45324 7.28141 3.40788 7.24839 3.42044 7.20853L3.51796 6.90043L3.25799 6.70842C3.22435 6.68352 3.24167 6.63021 3.28352 6.62984L3.60669 6.62738L3.70892 6.3208C3.7221 6.28109 3.77824 6.28109 3.79147 6.3208Z" fill="#F5F5F5"/>
<path d="M3.79147 7.92435L3.8937 8.23094L4.21687 8.23339C4.25873 8.23376 4.27604 8.28712 4.2424 8.31198L3.98244 8.50398L4.07996 8.81208C4.09262 8.85195 4.04715 8.88501 4.01309 8.86063L3.7502 8.67271L3.4873 8.86063C3.45324 8.88496 3.40788 8.85195 3.42044 8.81208L3.51796 8.50398L3.25799 8.31198C3.22435 8.28707 3.24167 8.23376 3.28352 8.23339L3.60669 8.23094L3.70892 7.92435C3.7221 7.88459 3.77824 7.88459 3.79147 7.92435Z" fill="#F5F5F5"/>
<path d="M5.03476 2.29537L5.13699 2.60195L5.46016 2.60441C5.50201 2.60478 5.51933 2.65814 5.48569 2.68299L5.22572 2.875L5.32324 3.1831C5.3359 3.22296 5.29044 3.25603 5.25638 3.23165L4.99348 3.04372L4.73058 3.23165C4.69653 3.25598 4.65117 3.22296 4.66372 3.1831L4.76124 2.875L4.50128 2.68299C4.46763 2.65809 4.48495 2.60478 4.52681 2.60441L4.84997 2.60195L4.9522 2.29537C4.96534 2.25571 5.02152 2.25571 5.03476 2.29537Z" fill="#F5F5F5"/>
<path d="M5.03476 3.89941L5.13699 4.20599L5.46016 4.20845C5.50201 4.20882 5.51933 4.26218 5.48569 4.28703L5.22572 4.47904L5.32324 4.78714C5.3359 4.82701 5.29044 4.86007 5.25638 4.83569L4.99348 4.64777L4.73058 4.83569C4.69653 4.86002 4.65117 4.82706 4.66372 4.78714L4.76124 4.47904L4.50128 4.28703C4.46763 4.26213 4.48495 4.20882 4.52681 4.20845L4.84997 4.20599L4.9522 3.89941C4.96534 3.8597 5.02152 3.8597 5.03476 3.89941Z" fill="#F5F5F5"/>
<path d="M5.03476 5.50341L5.13699 5.81L5.46016 5.81246C5.50201 5.81282 5.51933 5.86619 5.48569 5.89104L5.22572 6.08305L5.32324 6.39115C5.3359 6.43101 5.29044 6.46408 5.25638 6.4397L4.99348 6.25177L4.73058 6.4397C4.69653 6.46402 4.65117 6.43101 4.66372 6.39115L4.76124 6.08305L4.50128 5.89104C4.46763 5.86613 4.48495 5.81282 4.52681 5.81246L4.84997 5.81L4.9522 5.50341C4.96534 5.46371 5.02152 5.46371 5.03476 5.50341Z" fill="#F5F5F5"/>
<path d="M5.03476 7.10738L5.13699 7.41396L5.46016 7.41642C5.50201 7.41679 5.51933 7.47015 5.48569 7.495L5.22572 7.68701L5.32324 7.99511C5.3359 8.03498 5.29044 8.06804 5.25638 8.04366L4.99348 7.85574L4.73058 8.04366C4.69653 8.06799 4.65117 8.03498 4.66372 7.99511L4.76124 7.68701L4.50128 7.495C4.46763 7.4701 4.48495 7.41679 4.52681 7.41642L4.84997 7.41396L4.9522 7.10738C4.96534 7.06772 5.02152 7.06772 5.03476 7.10738Z" fill="#F5F5F5"/>
<path d="M6.27883 1.50927L6.38106 1.81586L6.70423 1.81832C6.74608 1.81868 6.7634 1.87205 6.72976 1.8969L6.46979 2.0889L6.56731 2.397C6.57997 2.43687 6.53451 2.46994 6.50045 2.44556L6.2375 2.25763L5.9746 2.44556C5.94054 2.46988 5.89518 2.43687 5.90774 2.397L6.00526 2.0889L5.74529 1.8969C5.71165 1.87199 5.72897 1.81868 5.77082 1.81832L6.09399 1.81586L6.19622 1.50927C6.20946 1.46956 6.2656 1.46956 6.27883 1.50927Z" fill="#F5F5F5"/>
<path d="M6.27883 3.11373L6.38106 3.42031L6.70423 3.42277C6.74608 3.42314 6.7634 3.4765 6.72976 3.50135L6.46979 3.69336L6.56731 4.00146C6.57997 4.04132 6.53451 4.07439 6.50045 4.05001L6.2375 3.86208L5.9746 4.05001C5.94054 4.07434 5.89518 4.04132 5.90774 4.00146L6.00526 3.69336L5.74529 3.50135C5.71165 3.47645 5.72897 3.42314 5.77082 3.42277L6.09399 3.42031L6.19622 3.11373C6.20946 3.07407 6.2656 3.07407 6.27883 3.11373Z" fill="#F5F5F5"/>
<path d="M6.27883 4.71627L6.38106 5.02285L6.70423 5.02531C6.74608 5.02568 6.7634 5.07904 6.72976 5.10389L6.46979 5.2959L6.56731 5.604C6.57997 5.64386 6.53451 5.67693 6.50045 5.65255L6.2375 5.46462L5.9746 5.65255C5.94054 5.67688 5.89518 5.64386 5.90774 5.604L6.00526 5.2959L5.74529 5.10389C5.71165 5.07899 5.72897 5.02568 5.77082 5.02531L6.09399 5.02285L6.19622 4.71627C6.20946 4.67661 6.2656 4.67661 6.27883 4.71627Z" fill="#F5F5F5"/>
<path d="M6.27883 6.3208L6.38106 6.62738L6.70423 6.62984C6.74608 6.63021 6.7634 6.68357 6.72976 6.70842L6.46979 6.90043L6.56731 7.20853C6.57997 7.24839 6.53451 7.28146 6.50045 7.25708L6.2375 7.06915L5.9746 7.25708C5.94054 7.28141 5.89518 7.24839 5.90774 7.20853L6.00526 6.90043L5.74529 6.70842C5.71165 6.68352 5.72897 6.63021 5.77082 6.62984L6.09399 6.62738L6.19622 6.3208C6.20946 6.28109 6.2656 6.28109 6.27883 6.3208Z" fill="#F5F5F5"/>
<path d="M6.27883 7.92435L6.38106 8.23094L6.70423 8.23339C6.74608 8.23376 6.7634 8.28712 6.72976 8.31198L6.46979 8.50398L6.56731 8.81208C6.57997 8.85195 6.53451 8.88501 6.50045 8.86063L6.2375 8.67271L5.9746 8.86063C5.94054 8.88496 5.89518 8.85195 5.90774 8.81208L6.00526 8.50398L5.74529 8.31198C5.71165 8.28707 5.72897 8.23376 5.77082 8.23339L6.09399 8.23094L6.19622 7.92435C6.20946 7.88459 6.2656 7.88459 6.27883 7.92435Z" fill="#F5F5F5"/>
<path d="M7.52469 2.29537L7.62692 2.60195L7.95009 2.60441C7.99194 2.60478 8.00926 2.65814 7.97562 2.68299L7.71565 2.875L7.81317 3.1831C7.82583 3.22296 7.78037 3.25603 7.74631 3.23165L7.48341 3.04372L7.22051 3.23165C7.18645 3.25598 7.14109 3.22296 7.15365 3.1831L7.25117 2.875L6.9912 2.68299C6.95756 2.65809 6.97488 2.60478 7.01674 2.60441L7.3399 2.60195L7.44213 2.29537C7.45537 2.25571 7.51145 2.25571 7.52469 2.29537Z" fill="#F5F5F5"/>
<path d="M7.52469 3.89941L7.62692 4.20599L7.95009 4.20845C7.99194 4.20882 8.00926 4.26218 7.97562 4.28703L7.71565 4.47904L7.81317 4.78714C7.82583 4.82701 7.78037 4.86007 7.74631 4.83569L7.48341 4.64777L7.22051 4.83569C7.18645 4.86002 7.14109 4.82706 7.15365 4.78714L7.25117 4.47904L6.9912 4.28703C6.95756 4.26213 6.97488 4.20882 7.01674 4.20845L7.3399 4.20599L7.44213 3.89941C7.45537 3.8597 7.51145 3.8597 7.52469 3.89941Z" fill="#F5F5F5"/>
<path d="M7.52469 5.50341L7.62692 5.81L7.95009 5.81246C7.99194 5.81282 8.00926 5.86619 7.97562 5.89104L7.71565 6.08305L7.81317 6.39115C7.82583 6.43101 7.78037 6.46408 7.74631 6.4397L7.48341 6.25177L7.22051 6.4397C7.18645 6.46402 7.14109 6.43101 7.15365 6.39115L7.25117 6.08305L6.9912 5.89104C6.95756 5.86613 6.97488 5.81282 7.01674 5.81246L7.3399 5.81L7.44213 5.50341C7.45537 5.46371 7.51145 5.46371 7.52469 5.50341Z" fill="#F5F5F5"/>
<path d="M7.52469 7.10738L7.62692 7.41396L7.95009 7.41642C7.99194 7.41679 8.00926 7.47015 7.97562 7.495L7.71565 7.68701L7.81317 7.99511C7.82583 8.03498 7.78037 8.06804 7.74631 8.04366L7.48341 7.85574L7.22051 8.04366C7.18645 8.06799 7.14109 8.03498 7.15365 7.99511L7.25117 7.68701L6.9912 7.495C6.95756 7.4701 6.97488 7.41679 7.01674 7.41642L7.3399 7.41396L7.44213 7.10738C7.45537 7.06772 7.51145 7.06772 7.52469 7.10738Z" fill="#F5F5F5"/>
<path d="M8.76706 1.50927L8.86929 1.81586L9.19246 1.81832C9.23431 1.81868 9.25163 1.87205 9.21799 1.8969L8.95802 2.0889L9.05554 2.397C9.0682 2.43687 9.02274 2.46994 8.98868 2.44556L8.72578 2.25763L8.46288 2.44556C8.42883 2.46988 8.38347 2.43687 8.39602 2.397L8.49354 2.0889L8.23358 1.8969C8.19993 1.87199 8.21725 1.81868 8.25911 1.81832L8.58227 1.81586L8.6845 1.50927C8.69763 1.46956 8.75382 1.46956 8.76706 1.50927Z" fill="#F5F5F5"/>
<path d="M8.76706 3.11373L8.86929 3.42031L9.19246 3.42277C9.23431 3.42314 9.25163 3.4765 9.21799 3.50135L8.95802 3.69336L9.05554 4.00146C9.0682 4.04132 9.02274 4.07439 8.98868 4.05001L8.72578 3.86208L8.46288 4.05001C8.42883 4.07434 8.38347 4.04132 8.39602 4.00146L8.49354 3.69336L8.23358 3.50135C8.19993 3.47645 8.21725 3.42314 8.25911 3.42277L8.58227 3.42031L8.6845 3.11373C8.69763 3.07407 8.75382 3.07407 8.76706 3.11373Z" fill="#F5F5F5"/>
<path d="M8.76706 4.71627L8.86929 5.02285L9.19246 5.02531C9.23431 5.02568 9.25163 5.07904 9.21799 5.10389L8.95802 5.2959L9.05554 5.604C9.0682 5.64386 9.02274 5.67693 8.98868 5.65255L8.72578 5.46462L8.46288 5.65255C8.42883 5.67688 8.38347 5.64386 8.39602 5.604L8.49354 5.2959L8.23358 5.10389C8.19993 5.07899 8.21725 5.02568 8.25911 5.02531L8.58227 5.02285L8.6845 4.71627C8.69763 4.67661 8.75382 4.67661 8.76706 4.71627Z" fill="#F5F5F5"/>
<path d="M8.76706 6.3208L8.86929 6.62738L9.19246 6.62984C9.23431 6.63021 9.25163 6.68357 9.21799 6.70842L8.95802 6.90043L9.05554 7.20853C9.0682 7.24839 9.02274 7.28146 8.98868 7.25708L8.72578 7.06915L8.46288 7.25708C8.42883 7.28141 8.38347 7.24839 8.39602 7.20853L8.49354 6.90043L8.23358 6.70842C8.19993 6.68352 8.21725 6.63021 8.25911 6.62984L8.58227 6.62738L8.6845 6.3208C8.69763 6.28109 8.75382 6.28109 8.76706 6.3208Z" fill="#F5F5F5"/>
<path d="M8.76706 7.92435L8.86929 8.23094L9.19246 8.23339C9.23431 8.23376 9.25163 8.28712 9.21799 8.31198L8.95802 8.50398L9.05554 8.81208C9.0682 8.85195 9.02274 8.88501 8.98868 8.86063L8.72578 8.67271L8.46288 8.86063C8.42883 8.88496 8.38347 8.85195 8.39602 8.81208L8.49354 8.50398L8.23358 8.31198C8.19993 8.28707 8.21725 8.23376 8.25911 8.23339L8.58227 8.23094L8.6845 7.92435C8.69763 7.88459 8.75382 7.88459 8.76706 7.92435Z" fill="#F5F5F5"/>
<path d="M10.0151 2.29537L10.1173 2.60195L10.4405 2.60441C10.4824 2.60478 10.4997 2.65814 10.466 2.68299L10.2061 2.875L10.3036 3.1831C10.3163 3.22296 10.2708 3.25603 10.2367 3.23165L9.97383 3.04372L9.71093 3.23165C9.67687 3.25598 9.63151 3.22296 9.64407 3.1831L9.74159 2.875L9.48162 2.68299C9.44798 2.65809 9.4653 2.60478 9.50715 2.60441L9.83032 2.60195L9.93255 2.29537C9.94573 2.25571 10.0019 2.25571 10.0151 2.29537Z" fill="#F5F5F5"/>
<path d="M10.0151 3.89892L10.1173 4.20551L10.4405 4.20796C10.4824 4.20833 10.4997 4.2617 10.466 4.28655L10.2061 4.47855L10.3036 4.78665C10.3163 4.82652 10.2708 4.85958 10.2367 4.8352L9.97383 4.64728L9.71093 4.8352C9.67687 4.85953 9.63151 4.82657 9.64407 4.78665L9.74159 4.47855L9.48162 4.28655C9.44798 4.26164 9.4653 4.20833 9.50715 4.20796L9.83032 4.20551L9.93255 3.89892C9.94573 3.85921 10.0019 3.85921 10.0151 3.89892Z" fill="#F5F5F5"/>
<path d="M10.0151 5.50341L10.1173 5.81L10.4405 5.81246C10.4824 5.81282 10.4997 5.86619 10.466 5.89104L10.2061 6.08305L10.3036 6.39115C10.3163 6.43101 10.2708 6.46408 10.2367 6.4397L9.97383 6.25177L9.71093 6.4397C9.67687 6.46402 9.63151 6.43101 9.64407 6.39115L9.74159 6.08305L9.48162 5.89104C9.44798 5.86613 9.4653 5.81282 9.50715 5.81246L9.83032 5.81L9.93255 5.50341C9.94573 5.46371 10.0019 5.46371 10.0151 5.50341Z" fill="#F5F5F5"/>
<path d="M10.0151 7.10689L10.1173 7.41347L10.4405 7.41593C10.4824 7.4163 10.4997 7.46966 10.466 7.49451L10.2061 7.68652L10.3036 7.99462C10.3163 8.03449 10.2708 8.06755 10.2367 8.04317L9.97383 7.85525L9.71093 8.04317C9.67687 8.0675 9.63151 8.03449 9.64407 7.99462L9.74159 7.68652L9.48162 7.49451C9.44798 7.46961 9.4653 7.4163 9.50715 7.41593L9.83032 7.41347L9.93255 7.10689C9.94573 7.06723 10.0019 7.06723 10.0151 7.10689Z" fill="#F5F5F5"/>
<path d="M11.2592 1.50927L11.3614 1.81586L11.6846 1.81832C11.7264 1.81868 11.7438 1.87205 11.7101 1.8969L11.4501 2.0889L11.5477 2.397C11.5603 2.43687 11.5149 2.46994 11.4808 2.44556L11.2179 2.25763L10.955 2.44556C10.921 2.46988 10.8756 2.43687 10.8881 2.397L10.9857 2.0889L10.7257 1.8969C10.6921 1.87199 10.7094 1.81868 10.7512 1.81832L11.0744 1.81586L11.1766 1.50927C11.1898 1.46956 11.2459 1.46956 11.2592 1.50927Z" fill="#F5F5F5"/>
<path d="M11.2592 3.11324L11.3614 3.41982L11.6846 3.42228C11.7264 3.42265 11.7438 3.47601 11.7101 3.50086L11.4501 3.69287L11.5477 4.00097C11.5603 4.04084 11.5149 4.0739 11.4808 4.04952L11.2179 3.86159L10.955 4.04952C10.921 4.07385 10.8756 4.04084 10.8881 4.00097L10.9857 3.69287L10.7257 3.50086C10.6921 3.47596 10.7094 3.42265 10.7512 3.42228L11.0744 3.41982L11.1766 3.11324C11.1898 3.07358 11.2459 3.07358 11.2592 3.11324Z" fill="#F5F5F5"/>
<path d="M11.2592 4.71627L11.3614 5.02285L11.6846 5.02531C11.7264 5.02568 11.7438 5.07904 11.7101 5.10389L11.4501 5.2959L11.5477 5.604C11.5603 5.64386 11.5149 5.67693 11.4808 5.65255L11.2179 5.46462L10.955 5.65255C10.921 5.67688 10.8756 5.64386 10.8881 5.604L10.9857 5.2959L10.7257 5.10389C10.6921 5.07899 10.7094 5.02568 10.7512 5.02531L11.0744 5.02285L11.1766 4.71627C11.1898 4.67661 11.2459 4.67661 11.2592 4.71627Z" fill="#F5F5F5"/>
<path d="M11.2592 6.3208L11.3614 6.62738L11.6846 6.62984C11.7264 6.63021 11.7438 6.68357 11.7101 6.70842L11.4501 6.90043L11.5477 7.20853C11.5603 7.24839 11.5149 7.28146 11.4808 7.25708L11.2179 7.06915L10.955 7.25708C10.921 7.28141 10.8756 7.24839 10.8881 7.20853L10.9857 6.90043L10.7257 6.70842C10.6921 6.68352 10.7094 6.63021 10.7512 6.62984L11.0744 6.62738L11.1766 6.3208C11.1898 6.28109 11.2459 6.28109 11.2592 6.3208Z" fill="#F5F5F5"/>
<path d="M11.2592 7.92435L11.3614 8.23094L11.6846 8.23339C11.7264 8.23376 11.7438 8.28712 11.7101 8.31198L11.4501 8.50398L11.5477 8.81208C11.5603 8.85195 11.5149 8.88501 11.4808 8.86063L11.2179 8.67271L10.955 8.86063C10.921 8.88496 10.8756 8.85195 10.8881 8.81208L10.9857 8.50398L10.7257 8.31198C10.6921 8.28707 10.7094 8.23376 10.7512 8.23339L11.0744 8.23094L11.1766 7.92435C11.1898 7.88459 11.2459 7.88459 11.2592 7.92435Z" fill="#F5F5F5"/>
</svg>
