<svg width="42" height="42" viewBox="0 0 42 42" fill="none" xmlns="http://www.w3.org/2000/svg">
<path d="M1.72939 7.10926H5.39C6.34336 7.10926 7.1194 6.33365 7.1194 5.37987V1.72939C7.1194 0.77561 6.34336 0 5.39 0H1.72939C0.776032 0 0 0.77561 0 1.72939V5.37987C0 6.33365 0.776032 7.10926 1.72939 7.10926ZM1.72939 1.72939L5.39 1.72813C5.39001 1.91379 5.39008 5.46866 5.39 5.37987H1.72939V1.72939Z" fill="#D76F27"/>
<path d="M39.7817 34.3903C36.9801 34.3899 36.6191 34.3903 36.1202 34.3903C35.1668 34.3903 34.3908 35.1659 34.3908 36.1197V39.7706C34.3908 40.7244 35.1668 41.5 36.1202 41.5H39.7817C40.735 41.5 41.511 40.7244 41.511 39.7706V36.1197C41.511 35.1659 40.735 34.3903 39.7817 34.3903ZM39.7817 39.7706H36.1202V36.1197C37.5228 36.1194 36.7715 36.1195 39.7817 36.1189V39.7706Z" fill="#D76F27"/>
<path d="M39.7817 0H36.1202C35.1668 0 34.3908 0.77561 34.3908 1.72939V5.37987C34.3908 6.33365 35.1668 7.10926 36.1202 7.10926H39.7817C40.735 7.10926 41.511 6.33365 41.511 5.37987V1.72939C41.511 0.77561 40.735 0 39.7817 0ZM39.7817 5.37987H36.1202V1.72939H39.7817V5.37987Z" fill="#D76F27"/>
<path d="M1.72939 41.4998H5.39C6.34336 41.4998 7.1194 40.7242 7.1194 39.7704V36.1195C7.1194 35.1657 6.34336 34.3901 5.39 34.3901C5.27492 34.3901 1.48803 34.3901 1.72939 34.3901C0.776032 34.3901 0 35.1657 0 36.1195V39.7704C0 40.7242 0.776032 41.4998 1.72939 41.4998ZM1.72939 36.1195H5.39C5.39 36.218 5.39 39.8606 5.39 39.7704H1.72939V36.1195Z" fill="#D76F27"/>
<path d="M4.42666 27.8184H2.69727V29.5478H4.42666V27.8184Z" fill="#D76F27"/>
<path d="M2.69727 32.8334H4.42666V31.104H2.69727V32.8334Z" fill="#D76F27"/>
<path d="M4.42666 8.10303H2.69727V9.83242H4.42666V8.10303Z" fill="#D76F27"/>
<path d="M4.42666 24.5325H2.69727V26.2619H4.42666V24.5325Z" fill="#D76F27"/>
<path d="M4.42666 21.2466H2.69727V22.976H4.42666V21.2466Z" fill="#D76F27"/>
<path d="M4.42666 17.9604H2.69727V19.6898H4.42666V17.9604Z" fill="#D76F27"/>
<path d="M4.42666 11.3892H2.69727V13.1186H4.42666V11.3892Z" fill="#D76F27"/>
<path d="M4.42666 14.6748H2.69727V16.4042H4.42666V14.6748Z" fill="#D76F27"/>
<path d="M38.8153 8.10303H37.0859V9.83242H38.8153V8.10303Z" fill="#D76F27"/>
<path d="M37.0859 16.4042H38.8153V14.6748H37.0859V16.4042Z" fill="#D76F27"/>
<path d="M37.0859 22.976H38.8153V21.2466H37.0859V22.976Z" fill="#D76F27"/>
<path d="M37.0859 29.5478H38.8153V27.8184H37.0859V29.5478Z" fill="#D76F27"/>
<path d="M37.0859 32.8334H38.8153V31.104H37.0859V32.8334Z" fill="#D76F27"/>
<path d="M37.0859 19.6898H38.8153V17.9604H37.0859V19.6898Z" fill="#D76F27"/>
<path d="M37.0859 26.2619H38.8153V24.5325H37.0859V26.2619Z" fill="#D76F27"/>
<path d="M37.0859 13.1186H38.8153V11.3892H37.0859V13.1186Z" fill="#D76F27"/>
<path d="M21.8164 2.69043V4.41982H23.5458V2.69043H21.8164Z" fill="#D76F27"/>
<path d="M11.959 2.69043V4.41982H13.6884V2.69043H11.959Z" fill="#D76F27"/>
<path d="M26.8311 2.69043H25.1017V4.41982H26.8311V2.69043Z" fill="#D76F27"/>
<path d="M16.9735 2.69043H15.2441V4.41982H16.9735V2.69043Z" fill="#D76F27"/>
<path d="M8.67365 2.69043V4.41982H10.403V2.69043H8.67365Z" fill="#D76F27"/>
<path d="M18.5332 2.69043V4.41982H20.2626V2.69043H18.5332Z" fill="#D76F27"/>
<path d="M30.1181 2.69043H28.3887V4.41982H30.1181V2.69043Z" fill="#D76F27"/>
<path d="M33.3935 2.69043H31.6641V4.41982H33.3935V2.69043Z" fill="#D76F27"/>
<path d="M21.8164 37.0793V38.8087H23.5458V37.0793H21.8164Z" fill="#D76F27"/>
<path d="M10.403 38.8087V37.0793H8.67365V38.8087H10.403Z" fill="#D76F27"/>
<path d="M28.3887 37.0793V38.8087H30.1181V37.0793H28.3887Z" fill="#D76F27"/>
<path d="M33.3935 37.0793H31.6641V38.8087H33.3935V37.0793Z" fill="#D76F27"/>
<path d="M15.2441 38.8087H16.9735V37.0793H15.2441V38.8087Z" fill="#D76F27"/>
<path d="M13.6884 38.8087V37.0793H11.959V38.8087H13.6884Z" fill="#D76F27"/>
<path d="M26.8311 37.0793H25.1017V38.8087H26.8311V37.0793Z" fill="#D76F27"/>
<path d="M20.2626 37.0793H18.5332V38.8087H20.2626V37.0793Z" fill="#D76F27"/>
<path d="M17.3524 27.881C17.6083 27.7235 17.7637 27.4448 17.7637 27.1446V17.6099L25.6507 13.6338C25.942 13.4868 26.1261 13.1879 26.1261 12.8615C26.1261 12.5352 25.942 12.2362 25.6507 12.0893L17.2883 7.87347C17.0434 7.75018 16.7546 7.75018 16.5097 7.87347L8.14729 12.0893C7.87523 12.2274 7.67188 12.5383 7.67188 12.8615V22.9284C7.67188 23.2548 7.85596 23.5537 8.14729 23.7006L16.5097 27.9169C16.7775 28.0517 17.0967 28.0385 17.3524 27.881ZM16.899 9.61427L23.3403 12.8615L16.899 16.1088L10.4577 12.8615L16.899 9.61427ZM9.40127 22.396V14.2659L16.0343 17.6099V25.7404L9.40127 22.396Z" fill="#D76F27"/>
<path d="M31.8121 28.0461L32.7917 27.6585C33.1337 27.5234 33.3524 27.1861 33.3372 26.8183C33.322 26.4506 33.0754 26.1331 32.7224 26.0267L29.8885 25.1728V15.6862C29.8885 15.386 29.7332 15.1073 29.4773 14.9498C29.2223 14.7928 28.9031 14.7793 28.6346 14.9144L20.2764 19.131C19.9851 19.278 19.801 19.5765 19.801 19.9029V29.9655C19.801 30.2657 19.9572 30.5448 20.2122 30.7019C20.4622 30.8558 20.7808 30.8757 21.0558 30.7373L24.977 28.7573L26.1418 32.6094C26.2482 32.9611 26.5657 33.2073 26.933 33.2229C27.3063 33.2368 27.6373 33.0198 27.7732 32.6782L28.1659 31.6907L29.9409 33.4657C30.1098 33.6346 30.331 33.719 30.5523 33.719C30.7735 33.719 30.9947 33.6346 31.1636 33.4657L33.5863 31.043C33.9241 30.7052 33.9241 30.158 33.5863 29.8203L31.8121 28.0461ZM21.5304 28.5604V20.4353L28.1591 17.0909V24.6518L26.1234 24.0385L24.8414 23.65C24.5352 23.5584 24.2012 23.6395 23.975 23.8675C23.7495 24.0925 23.6668 24.4235 23.7588 24.7288L24.4687 27.0765L21.5304 28.5604ZM30.5523 31.6316L28.4589 29.5382C28.2951 29.3744 28.0747 29.2849 27.8475 29.2849C27.7893 29.2849 27.731 29.2908 27.6727 29.3026C27.4177 29.3554 27.2024 29.5192 27.0825 29.7464L26.3449 27.3065C26.3416 27.2934 26.3442 27.2802 26.3402 27.2671L25.8876 25.7742L28.6886 26.6228C28.6969 26.6254 28.7058 26.623 28.7141 26.6253L29.8539 26.9686C29.6335 27.0894 29.4756 27.3018 29.4233 27.5509C29.3641 27.8363 29.4528 28.1318 29.6589 28.3379L31.7522 30.4316L30.5523 31.6316Z" fill="#D76F27"/>
</svg>
