<svg width="44" height="44" viewBox="0 0 44 44" fill="none" xmlns="http://www.w3.org/2000/svg">
<path d="M3.66693 24.9333H13.9336C14.1281 24.9333 14.3146 24.8561 14.4521 24.7185C14.5897 24.581 14.6669 24.3945 14.6669 24.2V19.8C14.6669 19.6055 14.5897 19.419 14.4521 19.2814C14.3146 19.1439 14.1281 19.0667 13.9336 19.0667H3.66693C3.47243 19.0667 3.28591 19.1439 3.14838 19.2814C3.01086 19.419 2.93359 19.6055 2.93359 19.8V24.2C2.93359 24.3945 3.01086 24.581 3.14838 24.7185C3.28591 24.8561 3.47243 24.9333 3.66693 24.9333ZM4.40026 20.5333H13.2003V23.4667H4.40026V20.5333Z" fill="#D76F27"/>
<path d="M16.1367 22.7336H24.9367V24.2003H16.1367V22.7336Z" fill="#D76F27"/>
<path d="M16.1367 19.7998H24.9367V21.2665H16.1367V19.7998Z" fill="#D76F27"/>
<path d="M3.66693 32.2666H13.9336C14.1281 32.2666 14.3146 32.1893 14.4521 32.0518C14.5897 31.9143 14.6669 31.7277 14.6669 31.5332V27.1332C14.6669 26.9387 14.5897 26.7522 14.4521 26.6147C14.3146 26.4772 14.1281 26.3999 13.9336 26.3999H3.66693C3.47243 26.3999 3.28591 26.4772 3.14838 26.6147C3.01086 26.7522 2.93359 26.9387 2.93359 27.1332V31.5332C2.93359 31.7277 3.01086 31.9143 3.14838 32.0518C3.28591 32.1893 3.47243 32.2666 3.66693 32.2666ZM4.40026 27.8666H13.2003V30.7999H4.40026V27.8666Z" fill="#D76F27"/>
<path d="M16.1367 30.0667H24.9367V31.5333H16.1367V30.0667Z" fill="#D76F27"/>
<path d="M16.1367 27.1335H24.9367V28.6002H16.1367V27.1335Z" fill="#D76F27"/>
<path d="M3.66693 39.6003H13.9336C14.1281 39.6003 14.3146 39.523 14.4521 39.3855C14.5897 39.248 14.6669 39.0615 14.6669 38.867V34.467C14.6669 34.2725 14.5897 34.086 14.4521 33.9484C14.3146 33.8109 14.1281 33.7336 13.9336 33.7336H3.66693C3.47243 33.7336 3.28591 33.8109 3.14838 33.9484C3.01086 34.086 2.93359 34.2725 2.93359 34.467V38.867C2.93359 39.0615 3.01086 39.248 3.14838 39.3855C3.28591 39.523 3.47243 39.6003 3.66693 39.6003ZM4.40026 35.2003H13.2003V38.1336H4.40026V35.2003Z" fill="#D76F27"/>
<path d="M16.1367 37.3999H24.9367V38.8666H16.1367V37.3999Z" fill="#D76F27"/>
<path d="M16.1367 34.4666H24.9367V35.9332H16.1367V34.4666Z" fill="#D76F27"/>
<path d="M12.4648 6.6001H15.3981V8.06676H12.4648V6.6001Z" fill="#D76F27"/>
<path d="M8.06536 16.1332H19.7987C19.9932 16.1332 20.1797 16.056 20.3172 15.9184C20.4548 15.7809 20.532 15.5944 20.532 15.3999V5.13324C20.532 4.93874 20.4548 4.75222 20.3172 4.61469C20.1797 4.47716 19.9932 4.3999 19.7987 4.3999H8.06536C7.87087 4.3999 7.68435 4.47716 7.54682 4.61469C7.40929 4.75222 7.33203 4.93874 7.33203 5.13324V15.3999C7.33203 15.5944 7.40929 15.7809 7.54682 15.9184C7.68435 16.056 7.87087 16.1332 8.06536 16.1332ZM11.732 5.86657H16.132V9.08004L13.932 10.18L11.732 9.08004V5.86657ZM8.7987 5.86657H10.2654V9.53324C10.2653 9.66951 10.3032 9.80311 10.3748 9.91904C10.4465 10.035 10.549 10.1287 10.6709 10.1896L13.6042 11.6562C13.706 11.7071 13.8182 11.7336 13.932 11.7336C14.0458 11.7336 14.158 11.7071 14.2598 11.6562L17.1932 10.1896C17.3151 10.1287 17.4176 10.035 17.4892 9.91904C17.5609 9.80311 17.5988 9.66951 17.5987 9.53324V5.86657H19.0654V14.6666H8.7987V5.86657Z" fill="#D76F27"/>
<path d="M35.9336 2.93335H38.8669V4.40002H35.9336V2.93335Z" fill="#D76F27"/>
<path d="M31.5333 12.4667H43.2667C43.4612 12.4667 43.6477 12.3894 43.7852 12.2519C43.9227 12.1144 44 11.9278 44 11.7333V1.46667C44 1.27217 43.9227 1.08565 43.7852 0.948122C43.6477 0.810595 43.4612 0.733333 43.2667 0.733333H31.5333C31.3388 0.733333 31.1523 0.810595 31.0148 0.948122C30.8773 1.08565 30.8 1.27217 30.8 1.46667V5.86667H27.8667V0.733333C27.8667 0.538841 27.7894 0.352315 27.6519 0.214788C27.5144 0.0772617 27.3278 0 27.1333 0H0.733333C0.538841 0 0.352315 0.0772617 0.214788 0.214788C0.0772617 0.352315 0 0.538841 0 0.733333V43.2667C0 43.4612 0.0772617 43.6477 0.214788 43.7852C0.352315 43.9227 0.538841 44 0.733333 44H27.1333C27.3278 44 27.5144 43.9227 27.6519 43.7852C27.7894 43.6477 27.8667 43.4612 27.8667 43.2667V38.1333H30.8V42.5333C30.8 42.7278 30.8773 42.9144 31.0148 43.0519C31.1523 43.1894 31.3388 43.2667 31.5333 43.2667H43.2667C43.4612 43.2667 43.6477 43.1894 43.7852 43.0519C43.9227 42.9144 44 42.7278 44 42.5333V32.2667C44 32.0722 43.9227 31.8856 43.7852 31.7481C43.6477 31.6106 43.4612 31.5333 43.2667 31.5333H31.5333C31.3388 31.5333 31.1523 31.6106 31.0148 31.7481C30.8773 31.8856 30.8 32.0722 30.8 32.2667V36.6667H27.8667V22.7333H30.8V27.1333C30.8 27.3278 30.8773 27.5144 31.0148 27.6519C31.1523 27.7894 31.3388 27.8667 31.5333 27.8667H43.2667C43.4612 27.8667 43.6477 27.7894 43.7852 27.6519C43.9227 27.5144 44 27.3278 44 27.1333V16.8667C44 16.6722 43.9227 16.4856 43.7852 16.3481C43.6477 16.2106 43.4612 16.1333 43.2667 16.1333H31.5333C31.3388 16.1333 31.1523 16.2106 31.0148 16.3481C30.8773 16.4856 30.8 16.6722 30.8 16.8667V21.2667H27.8667V7.33333H30.8V11.7333C30.8 11.9278 30.8773 12.1144 31.0148 12.2519C31.1523 12.3894 31.3388 12.4667 31.5333 12.4667ZM35.2 2.2H39.6V5.41347L37.4 6.51347L35.2 5.41347V2.2ZM32.2667 2.2H33.7333V5.86667C33.7333 6.00294 33.7712 6.13654 33.8428 6.25247C33.9144 6.36841 34.017 6.46208 34.1389 6.523L37.0722 7.98967C37.174 8.04053 37.2862 8.06701 37.4 8.06701C37.5138 8.06701 37.626 8.04053 37.7278 7.98967L40.6611 6.523C40.783 6.46208 40.8856 6.36841 40.9572 6.25247C41.0288 6.13654 41.0667 6.00294 41.0667 5.86667V2.2H42.5333V11H32.2667V2.2ZM26.4 42.5333H1.46667V1.46667H26.4V42.5333ZM35.2 33H39.6V36.2135L37.4 37.3135L35.2 36.2135V33ZM32.2667 33H33.7333V36.6667C33.7326 36.8036 33.7702 36.9379 33.8418 37.0546C33.9135 37.1712 34.0164 37.2655 34.1389 37.3267L37.0722 38.7933C37.174 38.8442 37.2862 38.8707 37.4 38.8707C37.5138 38.8707 37.626 38.8442 37.7278 38.7933L40.6611 37.3267C40.7836 37.2655 40.8865 37.1712 40.9582 37.0546C41.0298 36.9379 41.0674 36.8036 41.0667 36.6667V33H42.5333V41.8H32.2667V33ZM35.2 17.6H39.6V20.8135L37.4 21.9135L35.2 20.8135V17.6ZM32.2667 17.6H33.7333V21.2667C33.7333 21.4029 33.7712 21.5365 33.8428 21.6525C33.9144 21.7684 34.017 21.8621 34.1389 21.923L37.0722 23.3897C37.174 23.4405 37.2862 23.467 37.4 23.467C37.5138 23.467 37.626 23.4405 37.7278 23.3897L40.6611 21.923C40.783 21.8621 40.8856 21.7684 40.9572 21.6525C41.0288 21.5365 41.0667 21.4029 41.0667 21.2667V17.6H42.5333V26.4H32.2667V17.6Z" fill="#D76F27"/>
<path d="M35.9336 18.3333H38.8669V19.7999H35.9336V18.3333Z" fill="#D76F27"/>
<path d="M35.9336 33.7336H38.8669V35.2003H35.9336V33.7336Z" fill="#D76F27"/>
</svg>
