<svg width="56" height="45" viewBox="0 0 56 45" fill="none" xmlns="http://www.w3.org/2000/svg">
<path d="M5.44997 30.8633C5.003 30.8633 4.64062 31.2257 4.64062 31.6726C4.64062 32.1196 5.003 32.482 5.44997 32.482H12.5183C12.9653 32.482 13.3276 32.1196 13.3276 31.6726C13.3276 31.2257 12.9653 30.8633 12.5183 30.8633H5.44997Z" fill="#D76F27"/>
<path d="M54.3421 36.7853L50.9343 33.3775L50.935 5.99251C50.935 5.24877 50.33 4.6436 49.5861 4.6436L41.796 4.64306C38.729 1.70738 34.4197 -0.01437 30.1339 9.03645e-05C25.628 9.03645e-05 21.5271 1.76598 18.4856 4.64144L10.9566 4.64068C10.5097 4.64068 10.1472 5.00295 10.1472 5.44992C10.1472 5.89701 10.5094 6.25927 10.9564 6.25938L16.9815 6.26003C16.5345 6.80812 16.1212 7.3847 15.7442 7.98631L1.61935 7.98545V6.25906L7.17946 6.25938C7.62644 6.25938 7.98881 5.89712 7.98881 5.45003C7.98881 5.00295 7.62655 4.64068 7.17946 4.64068L1.34945 4.64036C0.605609 4.64036 0.000539566 5.24543 0.000539566 5.98927L0 36.2025C0 36.9463 0.605069 37.5514 1.34891 37.5514L12.3159 37.5522C12.7629 37.5522 13.1253 37.1899 13.1253 36.7428C13.1253 36.2957 12.763 35.9335 12.3159 35.9335L1.6187 35.9327L1.61935 9.60415L14.848 9.60501C14.3281 10.6799 13.9192 11.8179 13.6343 13.0036H5.50357C5.0566 13.0036 4.69422 13.366 4.69422 13.813V20.2878C4.69422 20.7347 5.0566 21.0971 5.50357 21.0971H13.6743C13.8648 21.856 14.1064 22.5946 14.3954 23.3093H5.44962C5.00264 23.3093 4.64027 23.6717 4.64027 24.1187C4.64027 24.5657 5.00264 24.928 5.44962 24.928H15.1519C15.5546 25.683 16.0121 26.4045 16.5201 27.0863H5.44962C5.00264 27.0863 4.64027 27.4487 4.64027 27.8957C4.64027 28.3426 5.00264 28.705 5.44962 28.705H17.8904C20.9808 31.9277 25.327 33.9373 30.134 33.9373C33.102 33.9373 35.9748 33.1697 38.5049 31.7325L40.1232 33.3508C40.4257 33.6533 40.823 33.8045 41.2204 33.8045C41.575 33.8045 41.929 33.6833 42.2162 33.4424L44.7093 35.9356L16.0929 35.9336C15.6459 35.9336 15.2835 36.2958 15.2835 36.7429C15.2835 37.19 15.6458 37.5523 16.0929 37.5523L19.6244 37.5525L18.9148 40.1413L17.5154 40.141C15.5035 40.141 13.8667 41.7777 13.8667 43.7895V44.1875C13.8667 44.6345 14.229 44.9969 14.676 44.9969L36.2583 45H36.2584C36.473 45 36.6788 44.9147 36.8307 44.763C36.9825 44.6112 37.0677 44.4054 37.0677 44.1907V43.7927C37.0677 41.7808 35.431 40.1441 33.4192 40.1441L32.0199 40.1438L31.3097 37.5532L46.3282 37.5543L49.9506 41.1769C50.5373 41.7634 51.317 42.0863 52.1464 42.0863C52.9758 42.0863 53.7556 41.7634 54.3422 41.1769C55.5528 39.9661 55.5528 37.9961 54.3421 36.7853ZM35.407 43.3812L15.5272 43.3783C15.7179 42.4555 16.5367 41.7597 17.5151 41.7597L33.4189 41.7628C34.3973 41.7628 35.2163 42.4585 35.407 43.3812ZM30.3412 40.1436L20.5931 40.1416L21.3028 37.5526L29.6311 37.5532L30.3412 40.1436ZM49.3163 7.98858L44.5311 7.98826C44.1569 7.38901 43.7455 6.81211 43.2979 6.26186L49.3163 6.26229V7.98858ZM6.31292 19.4785V14.6224H13.3284C13.2217 15.3897 13.1654 16.1727 13.1654 16.9688C13.1654 17.8214 13.2293 18.6594 13.3513 19.4785H6.31292ZM14.7841 16.9688C14.7841 8.50484 21.67 1.6189 30.134 1.6189C37.7525 1.6189 44.131 7.07326 45.3006 14.5882C45.3693 15.0299 45.7831 15.3326 46.2247 15.2634C46.6664 15.1947 46.9688 14.781 46.8999 14.3393C46.643 12.6884 46.1413 11.0951 45.4236 9.60706L49.3162 9.60739L49.3157 31.7591L46.6078 29.0511C46.8422 28.7722 46.9705 28.4237 46.9705 28.0551C46.9705 27.6408 46.8091 27.2511 46.5161 26.958L44.8985 25.3404C46.1218 23.1871 46.8646 20.7769 47.0541 18.2602C47.0877 17.8145 46.7536 17.4259 46.3078 17.3924C45.8622 17.3597 45.4736 17.6929 45.44 18.1387C44.8412 26.09 38.118 32.3186 30.134 32.3186C21.67 32.3187 14.7841 25.4327 14.7841 16.9688ZM39.9048 30.8432C40.5305 30.4016 41.1299 29.9161 41.6979 29.387C42.5654 28.5788 43.3379 27.6914 44.0093 26.7404L45.324 28.0551L41.2204 32.1588L39.9048 30.8432ZM53.1975 40.0322C52.9167 40.313 52.5434 40.4676 52.1464 40.4676C51.7493 40.4676 51.376 40.313 51.0952 40.0322L43.3656 32.3026L45.4678 30.2002L53.1974 37.9299C53.777 38.5096 53.777 39.4526 53.1975 40.0322Z" fill="#D76F27"/>
<path d="M30.1351 3.23193C22.5607 3.23193 16.3984 9.39421 16.3984 16.9686C16.3984 21.3434 18.5117 25.4957 22.0513 28.0759C22.4124 28.3393 22.9188 28.2598 23.1821 27.8986C23.4454 27.5374 23.3661 27.0311 23.0048 26.7678C19.8818 24.4912 18.0171 20.8278 18.0171 16.9685C18.0171 10.2867 23.4533 4.85052 30.1351 4.85052C36.817 4.85052 42.2531 10.2867 42.2531 16.9685C42.2531 23.6504 36.817 29.0865 30.1351 29.0865C28.7589 29.0865 27.409 28.8579 26.123 28.4069C25.7011 28.2587 25.2393 28.481 25.0915 28.9028C24.9435 29.3246 25.1656 29.7864 25.5874 29.9343C27.0459 30.4459 28.5759 30.7052 30.1351 30.7052C37.7096 30.7052 43.8718 24.543 43.8718 16.9685C43.8718 9.3941 37.7097 3.23193 30.1351 3.23193Z" fill="#D76F27"/>
<path d="M30.5189 14.878C30.9659 14.878 31.3282 14.5156 31.3282 14.0686C31.3282 13.6216 30.9659 13.2593 30.5189 13.2593H28.075C27.628 13.2593 27.2656 13.6216 27.2656 14.0686V19.8686C27.2656 20.3156 27.628 20.678 28.075 20.678H30.5189C30.9659 20.678 31.3282 20.3156 31.3282 19.8686C31.3282 19.4217 30.9659 19.0593 30.5189 19.0593H28.8843V17.778H30.3387C30.7856 17.778 31.148 17.4157 31.148 16.9687C31.148 16.5217 30.7856 16.1593 30.3387 16.1593H28.8843V14.878H30.5189Z" fill="#D76F27"/>
<path d="M22.7633 19.0861C22.2031 19.0861 21.6647 18.8611 21.3232 18.4843C21.0231 18.1532 20.5112 18.128 20.1799 18.4281C19.8486 18.7282 19.8236 19.24 20.1237 19.5713C20.7766 20.2916 21.7386 20.7048 22.7632 20.7048C24.0344 20.7048 25.1024 19.8907 25.3027 18.7691C25.4539 17.922 25.0734 16.8168 23.5515 16.2556C23.0625 16.0775 22.2605 15.7851 21.9556 15.6137C21.8704 15.5673 21.8335 15.484 21.8457 15.366C21.8626 15.2027 21.9843 14.9968 22.2755 14.909C23.0585 14.6733 23.7918 15.2488 23.8149 15.2673C24.1571 15.5507 24.6643 15.5055 24.9506 15.1646C25.2381 14.8225 25.1939 14.3119 24.8517 14.0242C24.7952 13.9768 23.4473 12.8654 21.8086 13.3591C20.9415 13.6202 20.3241 14.3426 20.2354 15.1994C20.1556 15.9706 20.518 16.674 21.1814 17.0352C21.5148 17.2275 22.2796 17.5174 22.9912 17.7742C23.1771 17.8427 23.7783 18.0967 23.709 18.4846C23.6566 18.7803 23.2883 19.0861 22.7633 19.0861Z" fill="#D76F27"/>
<path d="M40.5993 16.969C40.5993 14.9089 38.9233 13.2329 36.8632 13.2329C34.8031 13.2329 33.1271 14.9089 33.1271 16.969C33.1271 19.029 34.8031 20.705 36.8632 20.705C38.9233 20.705 40.5993 19.029 40.5993 16.969ZM34.7458 16.969C34.7458 15.8015 35.6957 14.8516 36.8632 14.8516C38.0307 14.8516 38.9806 15.8015 38.9806 16.969C38.9806 18.1365 38.0307 19.0863 36.8632 19.0863C35.6957 19.0863 34.7458 18.1365 34.7458 16.969Z" fill="#D76F27"/>
</svg>
