<svg width="46" height="46" viewBox="0 0 46 46" fill="none" xmlns="http://www.w3.org/2000/svg">
<g clip-path="url(#clip0_1_219)">
<path d="M20.7742 12.6129V15.5807C20.7742 16.8078 19.7756 17.8065 18.5484 17.8065V19.2903C19.7756 19.2903 20.7742 20.289 20.7742 21.5161V24.4839C20.7742 25.711 19.7756 26.7097 18.5484 26.7097V28.1936C19.7756 28.1936 20.7742 29.1922 20.7742 30.4194V33.3871C20.7742 34.6143 19.7756 35.6129 18.5484 35.6129H2.22581C0.998645 35.6129 0 34.6143 0 33.3871V30.4194C0 29.1922 0.998645 28.1936 2.22581 28.1936V26.7097C0.998645 26.7097 0 25.711 0 24.4839V21.5161C0 20.289 0.998645 19.2903 2.22581 19.2903V17.8065C0.998645 17.8065 0 16.8078 0 15.5807V12.6129C0 11.3858 0.998645 10.3871 2.22581 10.3871H18.5484C19.7756 10.3871 20.7742 11.3858 20.7742 12.6129ZM1.48387 30.4194V33.3871C1.48387 33.7967 1.81626 34.129 2.22581 34.129H18.5484C18.9579 34.129 19.2903 33.7967 19.2903 33.3871V30.4194C19.2903 30.0098 18.9579 29.6774 18.5484 29.6774H2.22581C1.81626 29.6774 1.48387 30.0098 1.48387 30.4194ZM3.70968 28.1936H17.0645V26.7097H3.70968V28.1936ZM1.48387 21.5161V24.4839C1.48387 24.8934 1.81626 25.2258 2.22581 25.2258H18.5484C18.9579 25.2258 19.2903 24.8934 19.2903 24.4839V21.5161C19.2903 21.1066 18.9579 20.7742 18.5484 20.7742H2.22581C1.81626 20.7742 1.48387 21.1066 1.48387 21.5161ZM3.70968 19.2903H17.0645V17.8065H3.70968V19.2903ZM1.48387 12.6129V15.5807C1.48387 15.9902 1.81626 16.3226 2.22581 16.3226H18.5484C18.9579 16.3226 19.2903 15.9902 19.2903 15.5807V12.6129C19.2903 12.2034 18.9579 11.871 18.5484 11.871H2.22581C1.81626 11.871 1.48387 12.2034 1.48387 12.6129Z" fill="#D76F27"/>
<path d="M46.0008 30.4194V33.3871C46.0008 34.6143 45.0021 35.6129 43.775 35.6129H27.4524C26.2252 35.6129 25.2266 34.6143 25.2266 33.3871V30.4194C25.2266 29.1922 26.2252 28.1936 27.4524 28.1936V26.7097C26.2252 26.7097 25.2266 25.711 25.2266 24.4839V21.5161C25.2266 20.289 26.2252 19.2903 27.4524 19.2903V17.8065C26.2252 17.8065 25.2266 16.8078 25.2266 15.5807V12.6129C25.2266 11.3858 26.2252 10.3871 27.4524 10.3871H43.775C45.0021 10.3871 46.0008 11.3858 46.0008 12.6129V15.5807C46.0008 16.8078 45.0021 17.8065 43.775 17.8065V19.2903C45.0021 19.2903 46.0008 20.289 46.0008 21.5161V24.4839C46.0008 25.711 45.0021 26.7097 43.775 26.7097V28.1936C45.0021 28.1936 46.0008 29.1922 46.0008 30.4194ZM26.7104 30.4194V33.3871C26.7104 33.7967 27.0428 34.129 27.4524 34.129H43.775C44.1845 34.129 44.5169 33.7967 44.5169 33.3871V30.4194C44.5169 30.0098 44.1845 29.6774 43.775 29.6774H27.4524C27.0428 29.6774 26.7104 30.0098 26.7104 30.4194ZM44.5169 15.5807V12.6129C44.5169 12.2034 44.1845 11.871 43.775 11.871H27.4524C27.0428 11.871 26.7104 12.2034 26.7104 12.6129V15.5807C26.7104 15.9902 27.0428 16.3226 27.4524 16.3226H43.775C44.1845 16.3226 44.5169 15.9902 44.5169 15.5807ZM42.2911 17.8065H28.9362V19.2903H42.2911V17.8065ZM44.5169 24.4839V21.5161C44.5169 21.1066 44.1845 20.7742 43.775 20.7742H27.4524C27.0428 20.7742 26.7104 21.1066 26.7104 21.5161V24.4839C26.7104 24.8934 27.0428 25.2258 27.4524 25.2258H43.775C44.1845 25.2258 44.5169 24.8934 44.5169 24.4839ZM42.2911 26.7097H28.9362V28.1936H42.2911V26.7097Z" fill="#D76F27"/>
<path d="M33.3877 43.0324V43.919L37.1812 41.5485L33.3877 39.178V40.0646C33.3877 40.4749 33.056 40.8066 32.6457 40.8066H8.90379V39.3227H31.9038V37.8388C31.9038 37.5695 32.0499 37.3209 32.2866 37.1896C32.3979 37.128 32.5218 37.0969 32.6457 37.0969C32.783 37.0969 32.9188 37.1347 33.0389 37.2097L38.9744 40.9193C39.1911 41.0551 39.3231 41.2925 39.3231 41.5485C39.3231 41.8045 39.1911 42.0419 38.9744 42.1777L33.0389 45.8873C32.8089 46.0313 32.5211 46.0372 32.2859 45.9074C32.0499 45.776 31.9038 45.5275 31.9038 45.2582V43.7743H7.41992V42.2904H32.6457C33.056 42.2904 33.3877 42.6221 33.3877 43.0324Z" fill="#D76F27"/>
<path d="M12.6132 2.9677V2.08108L8.8197 4.45157L12.6132 6.82205V5.93544C12.6132 5.52515 12.9449 5.1935 13.3552 5.1935H37.0971V6.67738H14.0971V8.16125C14.0971 8.43057 13.9509 8.67912 13.7142 8.81044C13.4798 8.94028 13.1904 8.93434 12.9612 8.79041L7.0257 5.08073C6.8098 4.94496 6.67773 4.70754 6.67773 4.45157C6.67773 4.1956 6.8098 3.95818 7.02644 3.82241L12.9619 0.112729C13.0821 0.0377941 13.2179 -4.48227e-05 13.3552 -4.48227e-05C13.4791 -4.48227e-05 13.603 0.0311165 13.7142 0.0926971C13.9509 0.22402 14.0971 0.472568 14.0971 0.741891V2.22576H38.581V3.70963H13.3552C12.9449 3.70963 12.6132 3.37799 12.6132 2.9677Z" fill="#D76F27"/>
<path d="M38.5801 6.67737H40.0639V5.1935H38.5801V6.67737Z" fill="#D76F27"/>
<path d="M41.5488 6.67737H43.0327V5.1935H41.5488V6.67737Z" fill="#D76F27"/>
<path d="M5.93549 40.8064H7.41936V39.3225H5.93549V40.8064Z" fill="#D76F27"/>
<path d="M2.9668 40.8064H4.45067V39.3225H2.9668V40.8064Z" fill="#D76F27"/>
</g>
<defs>
<clipPath id="clip0_1_219">
<rect width="46" height="46" fill="white" transform="matrix(1 0 0 -1 0 46)"/>
</clipPath>
</defs>
</svg>
