<svg width="48" height="48" viewBox="0 0 48 48" fill="none" xmlns="http://www.w3.org/2000/svg">
<g clip-path="url(#clip0_1_232)">
<path d="M44.25 0.75H3.75C2.0955 0.75 0.75 2.0955 0.75 3.75V32.25C0.75 33.9045 2.0955 35.25 3.75 35.25H18V41.25H16.5C14.8455 41.25 13.5 42.5955 13.5 44.25V46.5C13.5 46.914 13.8352 47.25 14.25 47.25H33.75C34.1647 47.25 34.5 46.914 34.5 46.5V44.25C34.5 42.5955 33.1545 41.25 31.5 41.25H30V35.25H44.25C45.9045 35.25 47.25 33.9045 47.25 32.25V3.75C47.25 2.0955 45.9045 0.75 44.25 0.75ZM33 44.25V45.75H15V44.25C15 43.4227 15.6727 42.75 16.5 42.75H31.5C32.3272 42.75 33 43.4227 33 44.25ZM28.5 41.25H19.5V35.25H28.5V41.25ZM45.75 32.25C45.75 33.0773 45.0773 33.75 44.25 33.75H3.75C2.92275 33.75 2.25 33.0773 2.25 32.25V3.75C2.25 2.92275 2.92275 2.25 3.75 2.25H44.25C45.0773 2.25 45.75 2.92275 45.75 3.75V32.25Z" fill="#D76F27"/>
<path d="M43.5 3.75H4.5C4.08525 3.75 3.75 4.086 3.75 4.5V28.5C3.75 28.914 4.08525 29.25 4.5 29.25H43.5C43.9147 29.25 44.25 28.914 44.25 28.5V4.5C44.25 4.086 43.9147 3.75 43.5 3.75ZM42.75 27.75H5.25V5.25H42.75V27.75Z" fill="#D76F27"/>
<path d="M42.75 30.75H44.25V32.25H42.75V30.75Z" fill="#D76F27"/>
<path d="M39.75 30.75H41.25V32.25H39.75V30.75Z" fill="#D76F27"/>
<path d="M7.5 15.75H15C15.4148 15.75 15.75 15.414 15.75 15V7.5C15.75 7.086 15.4148 6.75 15 6.75H7.5C7.08525 6.75 6.75 7.086 6.75 7.5V15C6.75 15.414 7.08525 15.75 7.5 15.75ZM8.25 14.25V11.25H14.25V14.25H8.25ZM14.25 8.25V9.75H8.25V8.25H14.25Z" fill="#D76F27"/>
<path d="M18 15.75H25.5C25.9148 15.75 26.25 15.414 26.25 15V7.5C26.25 7.086 25.9148 6.75 25.5 6.75H18C17.5853 6.75 17.25 7.086 17.25 7.5V15C17.25 15.414 17.5853 15.75 18 15.75ZM18.75 14.25V11.25H24.75V14.25H18.75ZM24.75 8.25V9.75H18.75V8.25H24.75Z" fill="#D76F27"/>
<path d="M28.5 15.75H33V14.25H29.25V11.25H31.5V9.75H29.25V8.25H30.75V6.75H28.5C28.0853 6.75 27.75 7.086 27.75 7.5V15C27.75 15.414 28.0853 15.75 28.5 15.75Z" fill="#D76F27"/>
<path d="M7.5 26.25H15C15.4148 26.25 15.75 25.914 15.75 25.5V18C15.75 17.586 15.4148 17.25 15 17.25H7.5C7.08525 17.25 6.75 17.586 6.75 18V25.5C6.75 25.914 7.08525 26.25 7.5 26.25ZM8.25 24.75V21.75H14.25V24.75H8.25ZM14.25 18.75V20.25H8.25V18.75H14.25Z" fill="#D76F27"/>
<path d="M18 26.25H25.5C25.9148 26.25 26.25 25.914 26.25 25.5V18C26.25 17.586 25.9148 17.25 25.5 17.25H18C17.5853 17.25 17.25 17.586 17.25 18V25.5C17.25 25.914 17.5853 26.25 18 26.25ZM18.75 24.75V21.75H24.75V24.75H18.75ZM24.75 18.75V20.25H18.75V18.75H24.75Z" fill="#D76F27"/>
<path d="M28.5 26.25H36C36.4148 26.25 36.75 25.914 36.75 25.5V18C36.75 17.586 36.4148 17.25 36 17.25H28.5C28.0853 17.25 27.75 17.586 27.75 18V25.5C27.75 25.914 28.0853 26.25 28.5 26.25ZM29.25 24.75V21.75H35.25V24.75H29.25ZM35.25 18.75V20.25H29.25V18.75H35.25Z" fill="#D76F27"/>
<path d="M34.5306 15.2152C34.6221 15.5212 34.8966 15.735 35.2154 15.7492C35.2274 15.75 35.2379 15.75 35.2491 15.75C35.5544 15.75 35.8311 15.564 35.9459 15.279L37.3266 11.8275L40.7781 10.4467C41.0751 10.3282 41.2626 10.0357 41.2491 9.71699C41.2356 9.39824 41.0204 9.12374 40.7151 9.03149L33.2151 6.78149C32.9504 6.70274 32.6646 6.77474 32.4696 6.96974C32.2746 7.16474 32.2026 7.45124 32.2814 7.71524L34.5306 15.2152ZM38.2266 9.85124L36.4709 10.554C36.2796 10.6305 36.1289 10.7812 36.0524 10.9717L35.3496 12.7275L34.1166 8.61899L38.2266 9.85124Z" fill="#D76F27"/>
</g>
<defs>
<clipPath id="clip0_1_232">
<rect width="48" height="48" fill="white"/>
</clipPath>
</defs>
</svg>
