<svg width="45" height="45" viewBox="0 0 45 45" fill="none" xmlns="http://www.w3.org/2000/svg">
<g clip-path="url(#clip0_1_248)">
<path d="M15.1062 6.39088C15.2315 6.52896 15.2969 6.71116 15.2878 6.89742C15.2788 7.08367 15.1962 7.25871 15.0581 7.38404L13.8843 8.44928V12.5648C13.8843 12.7513 13.8102 12.9302 13.6783 13.062C13.5465 13.1939 13.3676 13.268 13.1811 13.268L5.01609 13.268C4.82961 13.268 4.65077 13.1939 4.51891 13.062C4.38705 12.9302 4.31297 12.7513 4.31297 12.5648L4.31297 5.01583C4.31297 4.82935 4.38705 4.65051 4.51891 4.51865C4.65077 4.38678 4.82961 4.31271 5.01609 4.31271L13.1811 4.31271C13.3676 4.31271 13.5465 4.38678 13.6783 4.51865C13.8102 4.65051 13.8843 4.82935 13.8843 5.01583C13.8843 5.20231 13.8102 5.38115 13.6783 5.51301C13.5465 5.64488 13.3676 5.71896 13.1811 5.71896L5.71922 5.71896L5.71922 11.8618L12.478 11.8618V9.72563L11.1713 10.9114C11.0376 11.0328 10.8623 11.098 10.6818 11.0937C10.5012 11.0893 10.3293 11.0156 10.2016 10.8879L8.60133 9.28767C8.53538 9.22252 8.48297 9.14498 8.4471 9.05951C8.41124 8.97403 8.39263 8.88231 8.39234 8.78962C8.39206 8.69692 8.4101 8.60509 8.44544 8.51939C8.48078 8.4337 8.53271 8.35584 8.59826 8.29029C8.6638 8.22474 8.74166 8.1728 8.82735 8.13745C8.91304 8.10211 9.00487 8.08405 9.09757 8.08433C9.19026 8.08461 9.28199 8.10321 9.36746 8.13907C9.45294 8.17493 9.53049 8.22733 9.59563 8.29327L10.7227 9.41994L14.1134 6.3428C14.2515 6.21759 14.4336 6.15232 14.6197 6.16134C14.8059 6.17035 14.9809 6.25291 15.1062 6.39088ZM14.113 20.0524L10.7227 23.1296L9.59599 22.0029C9.53084 21.937 9.45329 21.8845 9.36782 21.8487C9.28234 21.8128 9.19061 21.7942 9.09792 21.7939C9.00522 21.7937 8.91339 21.8117 8.8277 21.8471C8.74201 21.8824 8.66415 21.9344 8.59861 21.9999C8.53307 22.0655 8.48113 22.1433 8.44579 22.229C8.41045 22.3147 8.39241 22.4065 8.39269 22.4992C8.39298 22.5919 8.41159 22.6837 8.44746 22.7691C8.48332 22.8546 8.53573 22.9321 8.60168 22.9973L10.202 24.5976C10.3297 24.7253 10.5016 24.7989 10.6821 24.8033C10.8627 24.8077 11.038 24.7424 11.1717 24.6211L12.4784 23.4352V25.571H5.71957L5.71957 19.4286H13.1815C13.368 19.4286 13.5468 19.3545 13.6787 19.2226C13.8105 19.0908 13.8846 18.9119 13.8846 18.7254C13.8846 18.539 13.8105 18.3601 13.6787 18.2283C13.5468 18.0964 13.368 18.0223 13.1815 18.0223H5.01645C4.82997 18.0223 4.65112 18.0964 4.51926 18.2283C4.3874 18.3601 4.31332 18.539 4.31332 18.7254L4.31332 26.2745C4.31332 26.4609 4.3874 26.6398 4.51926 26.7716C4.65112 26.9035 4.82997 26.9776 5.01645 26.9776H13.1815C13.368 26.9776 13.5468 26.9035 13.6787 26.7716C13.8105 26.6398 13.8846 26.4609 13.8846 26.2745V22.1591L15.0581 21.0938C15.1962 20.9684 15.2789 20.7934 15.2879 20.6071C15.2969 20.4208 15.2316 20.2386 15.1062 20.1005C14.9809 19.9625 14.8059 19.8798 14.6196 19.8708C14.4333 19.8618 14.2511 19.9271 14.113 20.0524ZM14.113 33.7621L10.7227 36.8392L9.59599 35.7125C9.46411 35.5807 9.28526 35.5066 9.09877 35.5066C8.91229 35.5066 8.73345 35.5807 8.60159 35.7126C8.46974 35.8445 8.39567 36.0233 8.39569 36.2098C8.39571 36.3963 8.4698 36.5751 8.60168 36.707L10.202 38.3073C10.3297 38.435 10.5016 38.5086 10.6822 38.513C10.8627 38.5173 11.038 38.4521 11.1717 38.3307L12.4784 37.1449V39.281H5.71957V33.1382H13.1815C13.368 33.1382 13.5468 33.0641 13.6787 32.9323C13.8105 32.8004 13.8846 32.6215 13.8846 32.4351C13.8846 32.2486 13.8105 32.0697 13.6787 31.9379C13.5468 31.806 13.368 31.7319 13.1815 31.7319H5.01645C4.82997 31.7319 4.65112 31.806 4.51926 31.9379C4.3874 32.0697 4.31332 32.2486 4.31332 32.4351L4.31332 39.9842C4.31332 40.1707 4.3874 40.3495 4.51926 40.4814C4.65112 40.6132 4.82997 40.6873 5.01645 40.6873H13.1815C13.368 40.6873 13.5468 40.6132 13.6787 40.4814C13.8105 40.3495 13.8846 40.1707 13.8846 39.9842L13.8846 35.8687L15.0585 34.8034C15.1946 34.6775 15.2755 34.503 15.2836 34.3179C15.2917 34.1327 15.2264 33.9518 15.1018 33.8145C14.9772 33.6773 14.8035 33.5948 14.6184 33.5849C14.4333 33.5751 14.2518 33.6388 14.1134 33.7621H14.113ZM17.7521 5.71896L26.8865 5.71896C27.073 5.71896 27.2519 5.64488 27.3837 5.51301C27.5156 5.38115 27.5897 5.20231 27.5897 5.01583C27.5897 4.82935 27.5156 4.65051 27.3837 4.51865C27.2519 4.38678 27.073 4.31271 26.8865 4.31271L17.7521 4.31271C17.5657 4.31271 17.3868 4.38678 17.255 4.51865C17.1231 4.65051 17.049 4.82935 17.049 5.01583C17.049 5.20231 17.1231 5.38115 17.255 5.51301C17.3868 5.64488 17.5657 5.71896 17.7521 5.71896ZM17.7521 9.49351L26.8865 9.49351C27.073 9.49351 27.2519 9.41943 27.3837 9.28757C27.5156 9.1557 27.5897 8.97686 27.5897 8.79038C27.5897 8.6039 27.5156 8.42506 27.3837 8.2932C27.2519 8.16133 27.073 8.08726 26.8865 8.08726L17.7521 8.08726C17.5657 8.08726 17.3868 8.16133 17.255 8.2932C17.1231 8.42506 17.049 8.6039 17.049 8.79038C17.049 8.97686 17.1231 9.1557 17.255 9.28757C17.3868 9.41943 17.5657 9.49351 17.7521 9.49351ZM17.7521 19.4287H26.8865C27.073 19.4287 27.2519 19.3546 27.3837 19.2227C27.5156 19.0909 27.5897 18.912 27.5897 18.7255C27.5897 18.5391 27.5156 18.3602 27.3837 18.2284C27.2519 18.0965 27.073 18.0224 26.8865 18.0224H17.7521C17.5657 18.0224 17.3868 18.0965 17.255 18.2284C17.1231 18.3602 17.049 18.5391 17.049 18.7255C17.049 18.912 17.1231 19.0909 17.255 19.2227C17.3868 19.3546 17.5657 19.4287 17.7521 19.4287ZM17.7521 23.2031H26.8865C27.073 23.2031 27.2519 23.129 27.3837 22.9972C27.5156 22.8653 27.5897 22.6865 27.5897 22.5C27.5897 22.3135 27.5156 22.1347 27.3837 22.0028C27.2519 21.871 27.073 21.7969 26.8865 21.7969H17.7521C17.5657 21.7969 17.3868 21.871 17.255 22.0028C17.1231 22.1347 17.049 22.3135 17.049 22.5C17.049 22.6865 17.1231 22.8653 17.255 22.9972C17.3868 23.129 17.5657 23.2031 17.7521 23.2031ZM21.8769 31.7319H17.7521C17.5657 31.7319 17.3868 31.806 17.255 31.9379C17.1231 32.0697 17.049 32.2486 17.049 32.4351C17.049 32.6215 17.1231 32.8004 17.255 32.9323C17.3868 33.0641 17.5657 33.1382 17.7521 33.1382H21.8769C22.0633 33.1382 22.2422 33.0641 22.374 32.9323C22.5059 32.8004 22.58 32.6215 22.58 32.4351C22.58 32.2486 22.5059 32.0697 22.374 31.9379C22.2422 31.806 22.0633 31.7319 21.8769 31.7319ZM21.8769 35.5064H17.7521C17.5657 35.5064 17.3868 35.5805 17.255 35.7123C17.1231 35.8442 17.049 36.0231 17.049 36.2095C17.049 36.396 17.1231 36.5749 17.255 36.7067C17.3868 36.8386 17.5657 36.9127 17.7521 36.9127H21.8769C22.0633 36.9127 22.2422 36.8386 22.374 36.7067C22.5059 36.5749 22.58 36.396 22.58 36.2095C22.58 36.0231 22.5059 35.8442 22.374 35.7123C22.2422 35.5805 22.0633 35.5064 21.8769 35.5064ZM45 29.1709V39.2549C45 39.3783 44.9675 39.4995 44.9058 39.6064C44.8441 39.7133 44.7553 39.802 44.6484 39.8638L35.9154 44.9058C35.8085 44.9675 35.6872 45 35.5638 45C35.4404 45 35.3191 44.9675 35.2122 44.9058L31.9025 42.9948L31.9025 44.2969C31.9025 44.4834 31.8284 44.6622 31.6965 44.7941C31.5646 44.9259 31.3858 45 31.1993 45L0.703125 45C0.516645 45 0.337802 44.9259 0.205941 44.7941C0.074079 44.6622 0 44.4834 0 44.2969L0 0.703125C0 0.516645 0.074079 0.337802 0.205941 0.205941C0.337802 0.074079 0.516645 0 0.703125 0L31.1993 0C31.3858 0 31.5646 0.074079 31.6965 0.205941C31.8284 0.337802 31.9025 0.516645 31.9025 0.703125L31.9025 25.4309L35.2122 23.5195C35.3191 23.4578 35.4404 23.4253 35.5638 23.4253C35.6872 23.4253 35.8085 23.4578 35.9154 23.5195L44.6484 28.562C44.7553 28.6237 44.8441 28.7125 44.9058 28.8193C44.9675 28.9262 45 29.0475 45 29.1709ZM28.2371 29.1709L35.5638 33.4009L42.8906 29.1709L35.5638 24.9407L28.2371 29.1709ZM27.5339 38.8489L34.8607 43.0791V34.6187L27.5339 30.3886V38.8489ZM30.4958 42.1829L26.4792 39.8638C26.3724 39.802 26.2836 39.7133 26.2219 39.6064C26.1602 39.4995 26.1277 39.3783 26.1277 39.2549V29.1709C26.1277 29.0475 26.1602 28.9263 26.2219 28.8194C26.2836 28.7125 26.3724 28.6238 26.4792 28.5621L30.4958 26.2428L30.4958 1.40625L1.40625 1.40625L1.40625 43.5938L30.4962 43.5938L30.4958 42.1829ZM43.5937 38.8489V30.3886L36.2669 34.6187V43.0791L43.5937 38.8489Z" fill="#D76F27"/>
</g>
<defs>
<clipPath id="clip0_1_248">
<rect width="45" height="45" fill="white"/>
</clipPath>
</defs>
</svg>
