<svg width="32" height="31" viewBox="0 0 32 31" fill="none" xmlns="http://www.w3.org/2000/svg">
<path d="M28.7629 28.1339V17.129L28.9796 16.0453C29.5283 13.298 29.8082 10.5039 29.8154 7.70236L31.4482 3.62061C31.6147 3.19981 31.6323 2.73472 31.498 2.30254C31.3638 1.87037 31.0858 1.49709 30.7102 1.24467L30.6728 1.21972C29.4844 0.42451 28.0868 0 26.6569 0C25.2271 0 23.8294 0.42451 22.6411 1.21972L22.6037 1.24467C22.2281 1.49707 21.9501 1.87035 21.8158 2.30253C21.6816 2.73472 21.6992 3.19981 21.8657 3.62061L23.4984 7.70243C23.5056 10.5039 23.7855 13.298 24.3343 16.0453L24.551 17.1291V28.1339C24.551 28.6925 24.7729 29.2282 25.1678 29.6231C25.5628 30.0181 26.0985 30.24 26.6571 30.24C27.2157 30.24 27.7513 30.0181 28.1463 29.6231C28.5413 29.2282 28.7632 28.6925 28.7632 28.1339H28.7629ZM24.3806 7.0729L22.8432 3.22927C22.7655 3.03289 22.7573 2.81582 22.8199 2.61412C22.8826 2.41242 23.0123 2.23821 23.1876 2.12041L23.225 2.09547C24.2405 1.41594 25.4348 1.05319 26.6567 1.05319C27.8786 1.05319 29.073 1.41594 30.0884 2.09547L30.1259 2.12041C30.3012 2.23819 30.431 2.41239 30.4937 2.61409C30.5564 2.81579 30.5482 3.03286 30.4705 3.22927L28.9329 7.0729H27.8255L28.2261 5.07007C28.2401 5.0021 28.2405 4.93203 28.2273 4.8639C28.2141 4.79577 28.1876 4.73091 28.1493 4.67306C28.111 4.61521 28.0616 4.56551 28.004 4.52681C27.9464 4.48812 27.8817 4.46119 27.8136 4.44758C27.7456 4.43397 27.6755 4.43394 27.6074 4.44751C27.5394 4.46107 27.4747 4.48795 27.4171 4.52661C27.3594 4.56526 27.31 4.61493 27.2716 4.67276C27.2333 4.73058 27.2067 4.79542 27.1935 4.86354L26.7519 7.0729H26.5622L26.1201 4.86354C26.1069 4.79542 26.0803 4.73058 26.0419 4.67276C26.0036 4.61493 25.9541 4.56526 25.8965 4.52661C25.8389 4.48795 25.7742 4.46107 25.7061 4.44751C25.6381 4.43394 25.568 4.43397 25.5 4.44758C25.4319 4.46119 25.3672 4.48812 25.3096 4.52681C25.252 4.56551 25.2026 4.61521 25.1643 4.67306C25.126 4.73091 25.0994 4.79577 25.0863 4.8639C25.0731 4.93203 25.0735 5.0021 25.0875 5.07007L25.4883 7.0729H24.3806ZM27.7098 28.1339C27.7098 28.4132 27.5989 28.681 27.4014 28.8785C27.2039 29.076 26.936 29.187 26.6568 29.187C26.3775 29.187 26.1096 29.076 25.9121 28.8785C25.7147 28.681 25.6037 28.4132 25.6037 28.1339V17.6034H27.7098V28.1339ZM27.805 16.5504H25.5088L25.3665 15.8388C24.8589 13.2983 24.5868 10.7164 24.5537 8.12595H28.7593C28.7461 9.17953 28.6929 10.2326 28.5995 11.2851H27.1833C27.0436 11.2851 26.9097 11.3406 26.811 11.4393C26.7122 11.5381 26.6568 11.672 26.6568 11.8116C26.6568 11.9513 26.7122 12.0852 26.811 12.1839C26.9097 12.2827 27.0436 12.3382 27.1833 12.3382H28.4937C28.3604 13.513 28.1782 14.6798 27.9469 15.8388L27.805 16.5504Z" fill="#D76F27"/>
<path d="M21.0207 14.5771L19.988 14.233C19.8099 14.1737 19.6203 14.1575 19.4347 14.1858C19.2492 14.2141 19.073 14.2861 18.9207 14.3958C18.7684 14.5056 18.6444 14.6499 18.5589 14.817C18.4733 14.9841 18.4287 15.1691 18.4287 15.3568V20.7619C18.289 20.7619 18.1551 20.8174 18.0563 20.9162C17.9576 21.0149 17.9021 21.1488 17.9021 21.2885V29.7129C17.9021 29.8525 17.9576 29.9864 18.0563 30.0852C18.1551 30.1839 18.289 30.2394 18.4287 30.2394H22.6409C22.7805 30.2394 22.9144 30.1839 23.0132 30.0852C23.1119 29.9864 23.1674 29.8525 23.1674 29.7129V21.2885C23.1674 21.1488 23.1119 21.0149 23.0132 20.9162C22.9144 20.8174 22.7805 20.7619 22.6409 20.7619V16.825C22.6413 16.3276 22.485 15.8427 22.1942 15.4392C21.9033 15.0356 21.4927 14.734 21.0207 14.5771ZM19.4817 15.3568C19.4817 15.3359 19.4866 15.3153 19.4961 15.2967C19.5056 15.2781 19.5194 15.2621 19.5363 15.2498C19.5532 15.2376 19.5728 15.2296 19.5935 15.2265C19.6141 15.2233 19.6352 15.2251 19.655 15.2317L20.6877 15.5759C20.95 15.6631 21.1781 15.8307 21.3397 16.0549C21.5013 16.2792 21.5881 16.5486 21.5878 16.825V20.7619H19.4817V15.3568ZM22.1143 29.1863H18.9552V23.9211H22.1143V29.1863ZM22.1143 22.868H18.9552V21.815H22.1143V22.868Z" fill="#D76F27"/>
<path d="M0 25.5005V25.7638C0.00134132 26.9503 0.473292 28.0879 1.31231 28.9269C2.15133 29.7659 3.28891 30.2379 4.47546 30.2392H12.3733C13.5599 30.2379 14.6975 29.7659 15.5365 28.9269C16.3755 28.0879 16.8474 26.9503 16.8488 25.7638V25.5005C16.8488 25.3608 16.7933 25.2269 16.6946 25.1282C16.5958 25.0294 16.4619 24.974 16.3223 24.974H15.0849C15.6177 23.8504 15.8575 22.6104 15.7822 21.3692C15.7069 20.128 15.3188 18.9261 14.654 17.8752C13.9893 16.8243 13.0695 15.9587 11.9803 15.3589C10.8911 14.759 9.66785 14.4445 8.42439 14.4445C7.18094 14.4445 5.95768 14.759 4.86847 15.3589C3.77926 15.9587 2.8595 16.8243 2.19476 17.8752C1.53003 18.9261 1.14193 20.128 1.06659 21.3692C0.991251 22.6104 1.23111 23.8504 1.76386 24.974H0.526525C0.386882 24.974 0.252958 25.0294 0.154215 25.1282C0.0554729 25.2269 0 25.3608 0 25.5005ZM8.42439 15.4965C9.53345 15.4966 10.6229 15.7886 11.5834 16.3432C12.5439 16.8977 13.3414 17.6953 13.896 18.6558C14.4506 19.6162 14.7426 20.7057 14.7427 21.8148C14.7428 22.9238 14.451 24.0134 13.8966 24.974H12.6384C13.2251 24.1916 13.5823 23.2613 13.6701 22.2872C13.7579 21.3132 13.5727 20.334 13.1354 19.4594C12.698 18.5847 12.0257 17.849 11.1938 17.3349C10.3619 16.8208 9.40323 16.5485 8.42528 16.5485C7.44733 16.5485 6.4887 16.8208 5.6568 17.3349C4.8249 17.849 4.15259 18.5847 3.71521 19.4594C3.27783 20.334 3.09266 21.3132 3.18044 22.2872C3.26821 23.2613 3.62548 24.1916 4.2122 24.974H2.95216C2.39778 24.0134 2.10599 22.9238 2.1061 21.8148C2.10621 20.7057 2.39822 19.6162 2.95278 18.6558C3.50734 17.6953 4.30492 16.8977 5.26538 16.3432C6.22584 15.7886 7.31533 15.4966 8.42439 15.4965ZM9.16436 17.669C9.59964 17.7463 10.0199 17.8921 10.4095 18.101L5.28591 24.622C5.03344 24.3398 4.82017 24.0249 4.65184 23.6858L9.16436 17.669ZM4.26143 22.4512C4.17592 21.8975 4.2019 21.3324 4.33785 20.7889C4.4738 20.2454 4.71698 19.7346 5.05311 19.2864C5.38923 18.8382 5.81152 18.4617 6.29518 18.179C6.77884 17.8963 7.31412 17.713 7.86957 17.6401L4.26143 22.4512ZM11.2691 18.7115C11.7003 19.1071 12.0448 19.5878 12.2807 20.1234C12.2807 20.1234 8.49732 24.9444 8.48205 24.974H6.34857L11.2691 18.7115ZM6.84482 26.027H10.004C10.1436 26.027 10.2775 26.0825 10.3763 26.1812C10.475 26.28 10.5305 26.4139 10.5305 26.5535C10.5305 26.6932 10.475 26.8271 10.3763 26.9259C10.2775 27.0246 10.1436 27.0801 10.004 27.0801H6.84482C6.70518 27.0801 6.57125 27.0246 6.47251 26.9259C6.37377 26.8271 6.3183 26.6932 6.3183 26.5535C6.3183 26.4139 6.37377 26.28 6.47251 26.1812C6.57125 26.0825 6.70518 26.027 6.84482 26.027ZM9.80863 24.974L12.6161 21.4008C12.6292 21.5371 12.6366 21.6751 12.6366 21.8148C12.6377 22.4127 12.5109 23.004 12.2647 23.5488C12.0185 24.0937 11.6586 24.5796 11.2092 24.974H9.80863ZM5.35581 26.027C5.27145 26.2652 5.24551 26.5202 5.28017 26.7706C5.31482 27.0209 5.40905 27.2593 5.55495 27.4656C5.70084 27.672 5.89414 27.8403 6.11859 27.9565C6.34304 28.0726 6.5921 28.1332 6.84482 28.1331H10.004C10.2567 28.1332 10.5057 28.0727 10.7301 27.9565C10.9545 27.8404 11.1478 27.6722 11.2937 27.4659C11.4396 27.2595 11.5339 27.0212 11.5686 26.7709C11.6033 26.5207 11.5774 26.2657 11.4931 26.0275L11.4953 26.027H15.7857C15.7184 26.8862 15.3298 27.6885 14.6974 28.274C14.0649 28.8594 13.2352 29.1851 12.3733 29.1862H4.47546C3.61364 29.1851 2.78384 28.8594 2.15142 28.274C1.519 27.6885 1.1304 26.8862 1.06305 26.027H5.35581Z" fill="#D76F27"/>
</svg>
