<svg width="34" height="29" viewBox="0 0 34 29" fill="none" xmlns="http://www.w3.org/2000/svg">
<path d="M31.0292 1.85791H13.0726C12.8015 1.85791 12.5817 2.07765 12.5817 2.34879C12.5817 2.61993 12.8015 2.83967 13.0726 2.83967H31.0292C31.7484 2.83967 32.3335 3.42484 32.3335 4.14398V15.9963H30.4973C30.2261 15.9963 30.0064 16.2161 30.0064 16.4872C30.0064 16.7584 30.2261 16.9781 30.4973 16.9781H32.3335V20.2235C32.3335 20.9427 31.7483 21.5278 31.0292 21.5278H21.3351H15.8942H11.6519V16.9782H28.574C28.8452 16.9782 29.0649 16.7584 29.0649 16.4873C29.0649 16.2161 28.8452 15.9964 28.574 15.9964H11.6518V14.445V1.31908C11.6518 0.591736 11.06 0 10.3327 0H9.48893H2.16289H1.31914C0.591801 6.50689e-05 0 0.591801 0 1.31908V14.445V27.0247V27.5709C0 28.2983 0.591801 28.89 1.31914 28.89H10.3327C11.06 28.89 11.6518 28.2983 11.6518 27.5709V27.0247V22.5097H15.4033V25.9202H14.5616C13.7281 25.9202 13.05 26.5983 13.05 27.4319V28.3991C13.05 28.6703 13.2697 28.89 13.5408 28.89H23.6884C23.9595 28.89 24.1793 28.6703 24.1793 28.3991V27.4319C24.1793 26.5983 23.5012 25.9202 22.6677 25.9202H21.8259V24.6685C21.8259 24.3973 21.6062 24.1776 21.335 24.1776C21.0639 24.1776 20.8442 24.3973 20.8442 24.6685V25.9202H16.385V22.5097H20.8442V22.7868C20.8442 23.0579 21.0639 23.2777 21.335 23.2777C21.6062 23.2777 21.8259 23.0579 21.8259 22.7868V22.5097H31.0291C32.2896 22.5097 33.3152 21.4841 33.3152 20.2236V4.14398C33.3153 2.88346 32.2897 1.85791 31.0292 1.85791ZM8.4179 0.981824L7.9835 1.48578C7.87457 1.61221 7.71639 1.6847 7.54949 1.6847H4.05711C3.88578 1.6847 3.72474 1.60896 3.61555 1.477L3.20601 0.981824H8.4179ZM10.67 27.5708C10.6701 27.7569 10.5188 27.9082 10.3327 27.9082H1.31914C1.13311 27.9082 0.981759 27.7569 0.981759 27.5709V27.2091L3.87056 23.9053C4.09218 23.6516 4.18503 23.3032 4.11893 22.9732L3.58692 20.2362C3.53383 19.9704 3.27524 19.7979 3.00931 19.8511C2.7435 19.9042 2.57107 20.1629 2.62423 20.4287L3.1563 23.1658C3.16287 23.1988 3.15356 23.2337 3.13137 23.2591L0.981759 25.7176V15.8442L1.91218 17.0072C1.92298 17.0207 1.93053 17.0369 1.93391 17.0539L2.16705 18.2197C2.22022 18.4855 2.47886 18.6584 2.74467 18.6048C3.01048 18.5517 3.18291 18.293 3.12975 18.0272L2.89661 16.8615C2.86258 16.6911 2.78723 16.5293 2.67869 16.3938L0.981694 14.2728V1.31908C0.981694 1.13311 1.13304 0.981759 1.31908 0.981759H1.93183L2.85913 2.10277C3.15552 2.46097 3.59213 2.66646 4.05711 2.66646H7.54955C8.00237 2.66646 8.43163 2.46975 8.72723 2.12678L9.71394 0.981824H10.3327C10.5187 0.981824 10.6701 1.13317 10.6701 1.31914V14.2728L8.97313 16.3937C8.86453 16.5293 8.78918 16.6911 8.75515 16.8614L7.53283 22.9731C7.46678 23.3031 7.55964 23.6516 7.78126 23.9052L10.67 27.2089V27.5708ZM10.6701 25.7176L8.52057 23.2592C8.49832 23.2338 8.48902 23.1989 8.49559 23.1659C8.49565 23.1658 8.49565 23.1658 8.49565 23.1658L9.71797 17.0539C9.72136 17.037 9.7289 17.0208 9.73977 17.0073L10.6701 15.8443V25.7176ZM21.3351 26.9019H22.6677C22.9599 26.9019 23.1976 27.1396 23.1976 27.4318V27.9082H14.0318V27.4318C14.0318 27.1396 14.2695 26.9019 14.5617 26.9019H15.8942H21.3351Z" fill="#D76F27"/>
<path d="M30.3424 19.6675C30.6135 19.6675 30.8332 19.4478 30.8332 19.1767C30.8332 18.9056 30.6135 18.6858 30.3424 18.6858C30.0713 18.6858 29.8515 18.9056 29.8515 19.1767C29.8515 19.4478 30.0713 19.6675 30.3424 19.6675Z" fill="#D76F27"/>
<path d="M28.5671 19.6675C28.8382 19.6675 29.0579 19.4478 29.0579 19.1767C29.0579 18.9056 28.8382 18.6858 28.5671 18.6858C28.2959 18.6858 28.0762 18.9056 28.0762 19.1767C28.0762 19.4478 28.2959 19.6675 28.5671 19.6675Z" fill="#D76F27"/>
<path d="M26.8249 19.6675C27.096 19.6675 27.3157 19.4478 27.3157 19.1767C27.3157 18.9056 27.096 18.6858 26.8249 18.6858C26.5538 18.6858 26.334 18.9056 26.334 19.1767C26.334 19.4478 26.5538 19.6675 26.8249 19.6675Z" fill="#D76F27"/>
<path d="M18.6195 17.6167C17.8202 17.6167 17.1699 18.267 17.1699 19.0663C17.1699 19.8656 17.8202 20.5159 18.6195 20.5159C19.4188 20.5159 20.0691 19.8656 20.0691 19.0663C20.0691 18.267 19.4188 17.6167 18.6195 17.6167ZM18.6195 19.5341C18.3616 19.5341 18.1517 19.3242 18.1517 19.0663C18.1517 18.8084 18.3616 18.5985 18.6195 18.5985C18.8775 18.5985 19.0874 18.8084 19.0874 19.0663C19.0874 19.3242 18.8775 19.5341 18.6195 19.5341Z" fill="#D76F27"/>
<path d="M4.69299 25.9877H3.53398C3.26284 25.9877 3.0431 26.2074 3.0431 26.4786C3.0431 26.7497 3.26284 26.9694 3.53398 26.9694H4.69299C4.96413 26.9694 5.18387 26.7497 5.18387 26.4786C5.18387 26.2074 4.96407 25.9877 4.69299 25.9877Z" fill="#D76F27"/>
<path d="M7.73582 25.9875H6.57682C6.30567 25.9875 6.08594 26.2073 6.08594 26.4784C6.08594 26.7496 6.30567 26.9693 6.57682 26.9693H7.73582C8.00697 26.9693 8.2267 26.7496 8.2267 26.4784C8.2267 26.2073 8.00697 25.9875 7.73582 25.9875Z" fill="#D76F27"/>
<path d="M5.70541 14.2939C4.72196 14.2939 3.92188 15.094 3.92188 16.0775C3.92188 17.0609 4.72196 17.861 5.70541 17.861C6.68886 17.861 7.48895 17.0609 7.48895 16.0775C7.48895 15.0941 6.68886 14.2939 5.70541 14.2939ZM5.70541 16.8793C5.26333 16.8793 4.90363 16.5196 4.90363 16.0775C4.90363 15.6353 5.26327 15.2757 5.70541 15.2757C6.14749 15.2757 6.50719 15.6353 6.50719 16.0775C6.50719 16.5196 6.14756 16.8793 5.70541 16.8793Z" fill="#D76F27"/>
<path d="M9.11875 3.43066H2.51712C2.04667 3.43066 1.66406 3.81333 1.66406 4.28372V5.25624C1.664 5.72662 2.04667 6.10929 2.51712 6.10929H9.11875C9.58919 6.10929 9.9718 5.72662 9.9718 5.2563V4.28372C9.9718 3.81327 9.58913 3.43066 9.11875 3.43066ZM8.99004 5.12759H2.64576V4.41242H8.99004V5.12759Z" fill="#D76F27"/>
<path d="M9.11875 6.97192H2.51712C2.04667 6.97192 1.66406 7.35459 1.66406 7.82498V8.7975C1.66406 9.26788 2.04673 9.65049 2.51712 9.65049H9.11875C9.58913 9.65055 9.9718 9.26788 9.9718 8.7975V7.82498C9.9718 7.35453 9.58913 6.97192 9.11875 6.97192ZM8.99004 8.66879H2.64576V7.95362H8.99004V8.66879Z" fill="#D76F27"/>
</svg>
