<svg width="30" height="30" viewBox="0 0 30 30" fill="none" xmlns="http://www.w3.org/2000/svg">
<path d="M0.570002 0H17.978C18.1655 0 18.3189 0.153392 18.3189 0.34087V3.20999V13.1696H23.7447V7.69273H21.029C20.8415 7.69273 20.6881 7.545 20.6824 7.35752C20.6824 7.34048 20.6824 7.32344 20.688 7.30073L21.3698 2.60214C21.3983 2.43737 21.5403 2.3124 21.7107 2.3124H26.4604C26.6309 2.3124 26.7729 2.43737 26.8013 2.60214L27.4831 7.30073C27.5115 7.48821 27.3808 7.65864 27.199 7.68706C27.182 7.68706 27.1649 7.69273 27.1422 7.69273H24.4265V13.1697H26.7047C27.3354 13.1697 27.9206 13.4196 28.3069 13.8514C28.6251 14.198 28.7785 14.6639 28.7274 15.1298L28.2785 19.1806C29.3069 19.5386 30 20.5101 30 21.601V22.4248C30 22.6975 29.8977 22.9588 29.7103 23.1577C29.8977 23.3566 30 23.6179 30 23.8906V26.203C30 26.7938 29.5171 27.2768 28.9262 27.2768H28.6648V29.0153C28.6648 29.2028 28.5115 29.3562 28.324 29.3562H26.8411C26.6934 29.3562 26.557 29.2596 26.5115 29.1176L25.9377 27.2768H24.4265V28.6744H25.506V29.3562H22.5346V28.6744H23.7447V27.2768H18.3189V29.0891C18.3189 29.2766 18.1655 29.43 17.978 29.43H0.570002C0.382523 29.43 0.229132 29.2766 0.229132 29.0891V0.340919C0.229084 0.153392 0.382475 0 0.570002 0ZM26.165 2.99414H22.0062L21.421 7.01094H26.7502L26.165 2.99414ZM11.0693 23.7088C11.1034 23.4986 11.2 23.3111 11.3478 23.1577C11.1603 22.9588 11.0523 22.6975 11.0523 22.4248V21.601C11.0523 21.2942 11.1091 20.9931 11.2171 20.709H7.48434V20.0272H11.3932V20.3283C11.717 19.7658 12.2454 19.3398 12.8647 19.1466L12.842 18.9534H0.910921V23.7088H11.0693V23.7088ZM0.910872 3.55091V18.2716H8.93309V3.55091H0.910872ZM0.910872 0.68179V2.86917H17.6371V0.68179H0.910872ZM17.6371 3.55091H9.61488V18.2716H12.7681L12.4215 15.1298C12.3704 14.6639 12.5238 14.198 12.8419 13.8514C13.2283 13.4196 13.8134 13.1697 14.4441 13.1697H17.6371V3.55091ZM27.6081 19.0329L28.0512 15.0559C28.0797 14.7832 27.9831 14.5104 27.7956 14.3059C27.5399 14.0162 27.1422 13.8514 26.7047 13.8514H14.4441C14.0066 13.8514 13.6089 14.0162 13.3533 14.3059C13.1658 14.5104 13.0692 14.7832 13.0976 15.0559L13.5408 19.0329H27.6081ZM29.3182 21.601C29.3182 20.5613 28.4717 19.7147 27.4319 19.7147H13.6203C12.5806 19.7147 11.734 20.5613 11.734 21.601V22.4248C11.734 22.6407 11.9102 22.8168 12.126 22.8168H12.1317H28.9262C29.1421 22.8168 29.3182 22.6406 29.3182 22.4248V21.601ZM29.3182 26.203V23.8906C29.3182 23.6747 29.1421 23.4986 28.9262 23.4986H12.1318C11.9159 23.4929 11.7398 23.669 11.7341 23.8849V23.8906V26.203C11.7341 26.4189 11.9102 26.595 12.1261 26.595H12.1318H28.9262C29.1421 26.595 29.3182 26.4189 29.3182 26.203ZM12.842 28.6744H13.7283L14.1657 27.2767H12.842V28.6744ZM27.0911 28.6744H27.9831V27.2767H26.6536L27.0911 28.6744ZM17.6371 27.2768H14.8816L14.4214 28.7483H17.6371V27.2768ZM0.910872 28.7483H12.1602V27.2768H12.1318C11.6659 27.2768 11.2511 26.9756 11.1034 26.5325H7.48434V25.8507H11.0523V24.3906H0.910872V28.7483Z" fill="#D76F27"/>
<path d="M7.33203 8.89722H6.65024V11.3743H7.33203V8.89722Z" fill="#D76F27"/>
<path d="M11.7344 8.89722H11.0526V11.3743H11.7344V8.89722Z" fill="#D76F27"/>
</svg>
