<svg width="32" height="32" viewBox="0 0 32 32" fill="none" xmlns="http://www.w3.org/2000/svg">
<path d="M14.9922 3C14.6955 3 14.4055 3.08797 14.1588 3.2528C13.9122 3.41762 13.7199 3.65189 13.6064 3.92597C13.4928 4.20006 13.4631 4.50166 13.521 4.79264C13.5789 5.08361 13.7217 5.35088 13.9315 5.56066C14.1413 5.77044 14.4086 5.9133 14.6996 5.97118C14.9905 6.02906 15.2921 5.99935 15.5662 5.88582C15.8403 5.77229 16.0746 5.58003 16.2394 5.33336C16.4042 5.08668 16.4922 4.79667 16.4922 4.5C16.4917 4.10232 16.3335 3.72106 16.0523 3.43985C15.7711 3.15865 15.3899 3.00046 14.9922 3ZM14.9922 5C14.8933 5 14.7966 4.97068 14.7144 4.91573C14.6322 4.86079 14.5681 4.7827 14.5302 4.69134C14.4924 4.59998 14.4825 4.49945 14.5018 4.40245C14.5211 4.30546 14.5687 4.21637 14.6386 4.14645C14.7086 4.07652 14.7977 4.0289 14.8946 4.00961C14.9916 3.99031 15.0922 4.00022 15.1835 4.03806C15.2749 4.0759 15.353 4.13999 15.4079 4.22221C15.4629 4.30444 15.4922 4.40111 15.4922 4.5C15.492 4.63256 15.4393 4.75965 15.3456 4.85339C15.2518 4.94712 15.1248 4.99985 14.9922 5Z" fill="#D76F27"/>
<path d="M27.5 19.5H26C25.8674 19.5 25.7402 19.5527 25.6464 19.6464C25.5527 19.7402 25.5 19.8674 25.5 20C25.5 20.1326 25.5527 20.2598 25.6464 20.3536C25.7402 20.4473 25.8674 20.5 26 20.5H27.5C27.6326 20.5 27.7598 20.4473 27.8536 20.3536C27.9473 20.2598 28 20.1326 28 20C28 19.8674 27.9473 19.7402 27.8536 19.6464C27.7598 19.5527 27.6326 19.5 27.5 19.5Z" fill="#D76F27"/>
<path d="M27.5 21.5H26C25.8674 21.5 25.7402 21.5527 25.6464 21.6464C25.5527 21.7402 25.5 21.8674 25.5 22C25.5 22.1326 25.5527 22.2598 25.6464 22.3536C25.7402 22.4473 25.8674 22.5 26 22.5H27.5C27.6326 22.5 27.7598 22.4473 27.8536 22.3536C27.9473 22.2598 28 22.1326 28 22C28 21.8674 27.9473 21.7402 27.8536 21.6464C27.7598 21.5527 27.6326 21.5 27.5 21.5Z" fill="#D76F27"/>
<path d="M27.5 23.5H26C25.8674 23.5 25.7402 23.5527 25.6464 23.6464C25.5527 23.7402 25.5 23.8674 25.5 24C25.5 24.1326 25.5527 24.2598 25.6464 24.3536C25.7402 24.4473 25.8674 24.5 26 24.5H27.5C27.6326 24.5 27.7598 24.4473 27.8536 24.3536C27.9473 24.2598 28 24.1326 28 24C28 23.8674 27.9473 23.7402 27.8536 23.6464C27.7598 23.5527 27.6326 23.5 27.5 23.5Z" fill="#D76F27"/>
<path d="M27.5 25.5H26C25.8674 25.5 25.7402 25.5527 25.6464 25.6464C25.5527 25.7402 25.5 25.8674 25.5 26C25.5 26.1326 25.5527 26.2598 25.6464 26.3536C25.7402 26.4473 25.8674 26.5 26 26.5H27.5C27.6326 26.5 27.7598 26.4473 27.8536 26.3536C27.9473 26.2598 28 26.1326 28 26C28 25.8674 27.9473 25.7402 27.8536 25.6464C27.7598 25.5527 27.6326 25.5 27.5 25.5Z" fill="#D76F27"/>
<path d="M27.5 27.5H26C25.8674 27.5 25.7402 27.5527 25.6464 27.6464C25.5527 27.7402 25.5 27.8674 25.5 28C25.5 28.1326 25.5527 28.2598 25.6464 28.3536C25.7402 28.4473 25.8674 28.5 26 28.5H27.5C27.6326 28.5 27.7598 28.4473 27.8536 28.3536C27.9473 28.2598 28 28.1326 28 28C28 27.8674 27.9473 27.7402 27.8536 27.6464C27.7598 27.5527 27.6326 27.5 27.5 27.5Z" fill="#D76F27"/>
<path d="M6.49926 29.5C7.01019 29.4998 7.51739 29.4129 7.99926 29.2431V29.5C7.99905 29.8058 8.09235 30.1043 8.26664 30.3555C8.44093 30.6067 8.68787 30.7986 8.97434 30.9055C9.26082 31.0123 9.57312 31.0291 9.86936 30.9534C10.1656 30.8777 10.4316 30.7132 10.6317 30.482C11.5702 30.8266 12.5624 31.0019 13.5621 31H16.4207C17.5755 31.0034 18.7185 30.7689 19.7787 30.3111C20.2422 30.7536 20.8585 31.0003 21.4993 31H27.4993C28.1621 30.9993 28.7975 30.7356 29.2662 30.2669C29.7349 29.7983 29.9985 29.1628 29.9993 28.5V20.5C29.9989 19.7555 29.8138 19.0226 29.4605 18.3673C29.1072 17.7119 28.5968 17.1544 27.975 16.7449C28.2881 16.57 28.5484 16.3142 28.7286 16.0041C28.9088 15.694 29.0023 15.3412 28.9992 14.9826C28.9961 14.624 28.8966 14.2728 28.7111 13.9659C28.5256 13.659 28.261 13.4076 27.9449 13.2382C27.9811 13.078 27.9993 12.9142 27.9993 12.75C27.9993 11.8415 27.4324 10.9987 26.4993 10.4899V8.5C26.4995 8.15492 26.4103 7.81566 26.2405 7.51525C26.0707 7.21483 25.826 6.96349 25.5303 6.78568C25.2345 6.60787 24.8978 6.50964 24.5528 6.50056C24.2079 6.49149 23.8664 6.57186 23.5618 6.73387C22.9857 5.06036 21.9016 3.6084 20.4607 2.58052C19.0199 1.55264 17.2942 1.00011 15.5243 1H14.4588C12.3056 0.99998 10.2327 1.81707 8.65875 3.28624C7.08476 4.75541 6.12696 6.76717 5.97883 8.91519L5.16595 20.7017C4.13737 21.0205 3.2572 21.6975 2.68526 22.6099C2.11331 23.5223 1.88751 24.6096 2.04886 25.6742C2.2102 26.7389 2.74799 27.7105 3.56458 28.4124C4.38117 29.1144 5.42242 29.5003 6.49926 29.5ZM9.99926 29.5C9.99926 29.6326 9.94658 29.7598 9.85282 29.8536C9.75905 29.9473 9.63187 30 9.49926 30C9.36665 30 9.23948 29.9473 9.14571 29.8536C9.05194 29.7598 8.99926 29.6326 8.99926 29.5V20.5C8.99926 20.3674 9.05194 20.2402 9.14571 20.1464C9.23948 20.0527 9.36665 20 9.49926 20C9.63187 20 9.75905 20.0527 9.85282 20.1464C9.94658 20.2402 9.99926 20.3674 9.99926 20.5V29.5ZM10.9993 22.5264C11.0815 22.509 11.1652 22.5001 11.2493 22.5C11.847 22.5 12.418 22.9595 12.7388 23.6991C12.7776 23.7885 12.8417 23.8646 12.9232 23.9181C13.0047 23.9715 13.1001 24 13.1975 24H15.4993C15.7645 24 16.0188 24.1054 16.2064 24.2929C16.3939 24.4804 16.4993 24.7348 16.4993 25C16.4993 25.2652 16.3939 25.5196 16.2064 25.7071C16.0188 25.8946 15.7645 26 15.4993 26H13.1975C13.1001 26 13.0047 26.0285 12.9232 26.0819C12.8417 26.1354 12.7776 26.2115 12.7388 26.3009C12.418 27.0405 11.847 27.5 11.2493 27.5C11.1652 27.4998 11.0815 27.491 10.9993 27.4736V22.5264ZM28.9993 20.5V28.5C28.9988 28.8977 28.8406 29.2789 28.5594 29.5601C28.2782 29.8414 27.8969 29.9995 27.4993 30H21.4993C21.1016 29.9995 20.7203 29.8414 20.4391 29.5601C20.1579 29.2789 19.9997 28.8977 19.9993 28.5V20.5C20.0003 19.5721 20.3694 18.6824 21.0255 18.0263C21.6817 17.3701 22.5713 17.001 23.4993 17H25.4993C26.4272 17.001 27.3168 17.3701 27.973 18.0263C28.6291 18.6824 28.9982 19.5721 28.9993 20.5ZM26.9993 16H21.9993C21.734 16 21.4797 15.8946 21.2922 15.7071C21.1046 15.5196 20.9993 15.2652 20.9993 15C20.9993 14.7348 21.1046 14.4804 21.2922 14.2929C21.4797 14.1054 21.734 14 21.9993 14H26.9993C27.2645 14 27.5188 14.1054 27.7064 14.2929C27.8939 14.4804 27.9993 14.7348 27.9993 15C27.9993 15.2652 27.8939 15.5196 27.7064 15.7071C27.5188 15.8946 27.2645 16 26.9993 16ZM24.4993 7.5C24.7644 7.50031 25.0186 7.60577 25.206 7.79324C25.3935 7.98071 25.4989 8.23488 25.4993 8.5V10.8017C25.4993 10.8992 25.5277 10.9945 25.5812 11.076C25.6346 11.1575 25.7107 11.2216 25.8001 11.2604C26.5398 11.5813 26.9993 12.1522 26.9993 12.75C26.9991 12.834 26.9903 12.9178 26.9728 13H22.0258C22.0084 12.9178 21.9995 12.834 21.9993 12.75C21.9993 12.1522 22.4588 11.5813 23.1984 11.2604C23.2878 11.2216 23.3639 11.1575 23.4173 11.076C23.4708 10.9945 23.4993 10.8992 23.4993 10.8017V8.5C23.4996 8.23488 23.605 7.98071 23.7925 7.79324C23.98 7.60577 24.2341 7.50031 24.4993 7.5ZM6.97651 8.984C7.08108 7.47295 7.64044 6.02891 8.58105 4.8417C9.52166 3.6545 10.7995 2.7797 12.2466 2.33231C11.9476 2.70975 11.7298 3.14494 11.6069 3.61054C11.4841 4.07614 11.4588 4.56211 11.5327 5.03795C11.6066 5.51378 11.778 5.9692 12.0363 6.37563C12.2946 6.78205 12.634 7.1307 13.0334 7.39969C11.8935 7.88511 10.9745 8.77652 10.4545 9.90108C9.93449 11.0256 9.85059 12.3032 10.2191 13.4861C10.5875 14.669 11.3821 15.673 12.4488 16.3033C13.5154 16.9336 14.7781 17.1454 15.9921 16.8976C17.206 16.6498 18.2847 15.9601 19.0189 14.9621C19.7532 13.9642 20.0907 12.7291 19.9661 11.4965C19.8415 10.2638 19.2636 9.12129 18.3445 8.2905C17.4253 7.45971 16.2304 6.99982 14.9914 7C14.3284 7 13.6925 6.73661 13.2237 6.26777C12.7548 5.79893 12.4914 5.16304 12.4914 4.5C12.4914 3.83696 12.7548 3.20107 13.2237 2.73223C13.6925 2.26339 14.3284 2 14.9914 2H15.5243C17.2163 1.99393 18.8596 2.56601 20.1821 3.6215C21.4318 4.61492 22.3336 5.97962 22.7575 7.51875C22.588 7.81798 22.499 8.15608 22.4993 8.5V10.4899C21.5661 10.9987 20.9993 11.8415 20.9993 12.75C20.9994 12.9142 21.0178 13.0779 21.0541 13.238C20.7379 13.4074 20.4732 13.6587 20.2876 13.9656C20.1021 14.2725 20.0025 14.6237 19.9994 14.9824C19.9962 15.341 20.0897 15.6939 20.2699 16.004C20.4501 16.3141 20.7104 16.57 21.0235 16.7449C20.4017 17.1544 19.8913 17.7119 19.538 18.3673C19.1847 19.0226 18.9996 19.7555 18.9993 20.5V28.5C18.9989 28.8335 19.0656 29.1636 19.1955 29.4708C18.3129 29.8231 17.3708 30.0027 16.4205 30H13.5621C12.6877 30.0017 11.8198 29.8497 10.9979 29.5509C10.9985 29.5339 10.9993 29.5171 10.9993 29.5V28.4859C11.0823 28.4953 11.1657 28.5 11.2493 28.5C12.1578 28.5 13.0005 27.9332 13.5093 27H15.4993C16.0297 27 16.5384 26.7893 16.9135 26.4142C17.2885 26.0391 17.4993 25.5304 17.4993 25C17.4993 24.4696 17.2885 23.9609 16.9135 23.5858C16.5384 23.2107 16.0297 23 15.4993 23H13.5093C13.0005 22.0668 12.1578 21.5 11.2493 21.5C11.1657 21.5 11.0823 21.5047 10.9993 21.5141V20.5C10.9993 20.1022 10.8412 19.7206 10.5599 19.4393C10.2786 19.158 9.89709 19 9.49926 19C9.10144 19 8.71991 19.158 8.4386 19.4393C8.1573 19.7206 7.99926 20.1022 7.99926 20.5V20.7574C7.51746 20.5872 7.01023 20.5002 6.49926 20.5C6.39233 20.5 6.28676 20.5051 6.18145 20.5125L6.97651 8.984ZM14.9914 8C15.7826 8 16.5559 8.2346 17.2137 8.67412C17.8715 9.11365 18.3842 9.73836 18.687 10.4693C18.9897 11.2002 19.0689 12.0044 18.9146 12.7804C18.7603 13.5563 18.3793 14.269 17.8199 14.8284C17.2605 15.3878 16.5477 15.7688 15.7718 15.9231C14.9959 16.0775 14.1916 15.9983 13.4607 15.6955C12.7298 15.3928 12.1051 14.8801 11.6656 14.2223C11.226 13.5645 10.9914 12.7911 10.9914 12C10.9926 10.9395 11.4145 9.92278 12.1643 9.17289C12.9142 8.423 13.9309 8.00119 14.9914 8ZM6.49926 21.5C7.01809 21.5 7.53042 21.6153 7.99926 21.8375V23.0015C7.62794 22.7225 7.18622 22.5524 6.72366 22.5104C6.26109 22.4683 5.79596 22.556 5.38042 22.7635C4.96489 22.9711 4.61538 23.2903 4.37111 23.6853C4.12683 24.0804 3.99743 24.5357 3.99743 25.0001C3.99743 25.4646 4.12683 25.9199 4.37111 26.3149C4.61538 26.71 4.96489 27.0292 5.38042 27.2367C5.79596 27.4442 6.26109 27.5319 6.72366 27.4899C7.18622 27.4478 7.62794 27.2778 7.99926 26.9987V28.1625C7.52498 28.3874 7.00619 28.5027 6.4813 28.5C5.95642 28.4972 5.43887 28.3764 4.96698 28.1465C4.4951 27.9167 4.08096 27.5836 3.75522 27.172C3.42948 26.7604 3.20049 26.2808 3.0852 25.7687C2.96991 25.2567 2.97127 24.7252 3.08919 24.2137C3.20711 23.7023 3.43855 23.2239 3.7664 22.8139C4.09424 22.404 4.51009 22.0731 4.98315 21.8456C5.45621 21.6182 5.97437 21.5001 6.49926 21.5ZM7.99926 25C7.99926 25.2967 7.91129 25.5867 7.74647 25.8334C7.58165 26.08 7.34738 26.2723 7.07329 26.3858C6.7992 26.4993 6.4976 26.5291 6.20663 26.4712C5.91566 26.4133 5.64838 26.2704 5.4386 26.0607C5.22882 25.8509 5.08596 25.5836 5.02808 25.2926C4.97021 25.0017 4.99991 24.7001 5.11344 24.426C5.22697 24.1519 5.41923 23.9176 5.66591 23.7528C5.91258 23.588 6.20259 23.5 6.49926 23.5C6.89695 23.5005 7.27821 23.6586 7.55941 23.9398C7.84062 24.2211 7.9988 24.6023 7.99926 25Z" fill="#D76F27"/>
</svg>
