<svg width="31" height="31" viewBox="0 0 31 31" fill="none" xmlns="http://www.w3.org/2000/svg">
<g clip-path="url(#clip0_1_415)">
<path d="M25.11 0.173083C24.3298 -0.0981666 21.7088 -0.591583 19.6251 3.87913C19.3833 3.63733 19.2221 3.3077 19.1575 2.93415C19.4432 2.75022 19.6339 2.43092 19.6339 2.06667V1.55C19.6339 0.695433 18.9384 0 18.0839 0H14.9839C14.1293 0 13.4339 0.695433 13.4339 1.55V2.06667C13.4339 2.43092 13.6245 2.75022 13.9102 2.93467C13.8229 3.43738 13.563 3.86932 13.1755 4.09923C12.6315 4.41337 12.2331 4.94502 12.0321 5.57535C11.4772 5.5707 10.9353 5.70917 10.4387 5.99902C10.6371 4.83187 11.2644 3.92615 11.2721 3.91582C11.4369 3.68332 11.3822 3.36143 11.1502 3.1961C10.9177 3.03025 10.5948 3.08553 10.4294 3.31752C10.4083 3.34697 10.1603 3.70295 9.90708 4.26095C8.9218 3.73033 7.843 3.60117 7.29223 3.6177C6.98998 3.63527 6.46247 3.85898 6.49398 4.57922C6.5038 4.84013 6.52292 5.2638 6.70633 5.76238C6.29145 5.9179 5.90653 6.16487 5.58 6.50018C4.97705 7.11863 4.63863 7.96287 4.65103 8.81795C4.6686 9.8642 4.87372 10.8624 5.22918 11.749L4.93313 11.9055C4.40045 12.1871 4.0889 12.7436 4.14005 13.3217L5.56657 29.6432C5.63373 30.4172 6.30023 31 7.11605 31H23.8855C24.6879 31 25.3689 30.4038 25.435 29.6432L26.8615 13.3207C26.9127 12.7431 26.6011 12.1876 26.0695 11.9055L25.9021 11.8167C26.0963 11.3501 26.2704 10.8691 26.3955 10.448C28.0855 4.90213 27.6065 1.06175 25.1105 0.1736L25.11 0.173083ZM21.1833 7.56607C21.2412 7.56607 21.2996 7.56813 21.3616 7.59087L23.3094 8.28268C23.5688 8.37517 23.7207 8.66037 23.6189 8.9466C23.5316 9.20235 23.2541 9.36355 22.9633 9.25712L21.1833 8.62472V7.56607ZM14.4667 1.55C14.4667 1.26532 14.6987 1.03333 14.9833 1.03333H18.0833C18.368 1.03333 18.6 1.26532 18.6 1.55V2.06667H14.4667V1.55ZM13.6968 4.991C14.3525 4.60195 14.7979 3.9029 14.9343 3.1H18.1319C18.2688 3.9029 18.7147 4.60247 19.375 4.9941C19.8457 5.26587 20.15 5.85848 20.15 6.50483V11.6555L18.988 11.0386C18.521 10.7901 17.9402 10.7895 17.4726 11.0381L15.778 11.9366C15.6095 12.0254 15.4003 12.0254 15.2319 11.9366L13.5372 11.0375C13.3419 10.9342 13.1301 10.8841 12.9167 10.866V6.50483C12.9167 5.859 13.221 5.26587 13.6968 4.991ZM9.54852 5.24468C9.47928 5.49527 9.42142 5.76135 9.38577 6.04138C8.95538 5.84143 8.5281 5.58 7.75103 5.57845C7.58363 5.21782 7.5423 4.89697 7.5299 4.6531C7.97527 4.67532 8.81537 4.80913 9.548 5.24468H9.54852ZM5.68282 8.80193C5.67403 8.22068 5.90602 7.6446 6.31832 7.22145C6.69807 6.83188 7.18838 6.61437 7.7035 6.60868C8.0569 6.59473 8.43303 6.69755 8.7544 6.88665C9.4054 7.27777 10.322 7.28448 10.9611 6.88923C11.2447 6.72287 11.5584 6.63193 11.8828 6.6154V11.1125L10.3277 11.9371C10.1592 12.0259 9.94997 12.0259 9.78153 11.9371L8.08635 11.0381C7.61308 10.787 7.04682 10.787 6.57303 11.0381L6.14368 11.2654C5.86003 10.5204 5.6978 9.68285 5.68282 8.80297V8.80193ZM25.8313 13.2313L24.4048 29.5538C24.3846 29.7853 24.1562 29.9672 23.885 29.9672H7.1145C6.84325 29.9672 6.61488 29.7853 6.59473 29.5538L5.16822 13.2318C5.15375 13.0655 5.2483 12.9079 5.4157 12.819L7.05715 11.95C7.14137 11.9055 7.23592 11.8833 7.32995 11.8833C7.42398 11.8833 7.51905 11.9055 7.60327 11.95L9.29845 12.849C9.765 13.0965 10.3452 13.0965 10.8128 12.849L12.5075 11.9505C12.6759 11.8611 12.8852 11.8611 13.0541 11.9505L14.7488 12.849C15.2153 13.0965 15.7955 13.0965 16.2631 12.849L17.9578 11.951C18.1262 11.8611 18.3355 11.8616 18.5044 11.951L20.1934 12.8479C20.6594 13.096 21.2412 13.0965 21.7088 12.8485L23.4035 11.95C23.5714 11.8601 23.7806 11.8606 23.9496 11.95L25.5858 12.818C25.7527 12.9063 25.8478 13.0644 25.8333 13.2303L25.8313 13.2313ZM25.4045 10.1515C25.2986 10.509 25.1482 10.9254 24.9829 11.3305L24.4316 11.0381C23.9646 10.7906 23.3838 10.7901 22.9173 11.0381L21.2226 11.936C21.2097 11.9427 21.1957 11.9453 21.1823 11.951V9.72212L22.6124 10.2305C23.4345 10.5286 24.3216 10.0838 24.5933 9.28812C24.8801 8.4816 24.4616 7.5981 23.6546 7.31032L21.7103 6.61953C21.5378 6.55702 21.359 6.53583 21.1823 6.53635V6.50587C21.1823 5.75102 20.9121 5.05352 20.4533 4.55493C21.638 1.88738 23.234 0.614317 24.7649 1.14907C26.6187 1.80833 26.8698 5.34078 25.4035 10.1515H25.4045Z" fill="#D76F27"/>
<path d="M24.5474 3.24004L23.5734 2.89491C22.7674 2.60919 21.8808 3.03234 21.5946 3.83834C21.3094 4.64383 21.7326 5.53146 22.538 5.81718L23.512 6.16179C24.3262 6.44906 25.2071 6.02074 25.4903 5.21836C25.7765 4.41081 25.3549 3.52576 24.5474 3.24004ZM24.5164 4.87374C24.4203 5.14293 24.1263 5.28346 23.8571 5.18788L22.8832 4.84326C22.6145 4.74767 22.474 4.45214 22.5685 4.18348C22.6631 3.91791 22.9565 3.77324 23.2283 3.86882L24.2022 4.21396C24.4704 4.30851 24.6119 4.60301 24.5164 4.87374Z" fill="#D76F27"/>
</g>
<defs>
<clipPath id="clip0_1_415">
<rect width="31" height="31" fill="white"/>
</clipPath>
</defs>
</svg>
