<svg width="34" height="34" viewBox="0 0 34 34" fill="none" xmlns="http://www.w3.org/2000/svg">
<g clip-path="url(#clip0_1_419)">
<path d="M34 12.7739V10.4118C34 9.77365 33.4807 9.25433 32.8426 9.25433C32.4337 9.25433 32.0496 9.09532 31.7606 8.80687C31.4716 8.51738 31.3124 8.13295 31.3124 7.7244V3.56519C31.3124 2.91747 30.7855 2.39062 30.1378 2.39062H28.7212C28.0735 2.39062 27.5467 2.91772 27.5467 3.56519V5.99965C27.5467 7.50987 26.3423 8.75862 24.8621 8.78352C24.1262 8.79494 23.4269 8.51764 22.9008 8.00014C22.3745 7.48238 22.0847 6.79082 22.0847 6.05283V3.56519C22.0847 2.91747 21.5576 2.39062 20.9099 2.39062H19.4936C18.8459 2.39062 18.3188 2.91772 18.3188 3.56519V5.06607C18.3188 5.34129 18.5419 5.56412 18.8168 5.56412C19.0921 5.56412 19.3149 5.34129 19.3149 5.06607V3.56519C19.3149 3.46687 19.395 3.38672 19.4936 3.38672H20.9099C21.0085 3.38672 21.0887 3.46687 21.0887 3.56519V6.05283C21.0887 7.06007 21.4842 8.00377 22.2023 8.71011C22.9203 9.41646 23.8707 9.79414 24.8787 9.77962C26.8992 9.74538 28.5428 8.04968 28.5428 5.99965V3.56519C28.5428 3.46687 28.6229 3.38672 28.7212 3.38672H30.1378C30.2361 3.38672 30.3163 3.46687 30.3163 3.56519V7.7244C30.3163 8.39857 30.5788 9.03307 31.0563 9.51114C31.5339 9.98792 32.1681 10.2504 32.8426 10.2504C32.9315 10.2504 33.0039 10.3228 33.0039 10.4118V12.4696L24.8154 16.3982L16.6275 12.4698V10.4118C16.6275 10.3568 16.6532 10.3194 16.6758 10.2969C16.6931 10.2795 16.7307 10.2504 16.7888 10.2504C18.1818 10.2504 19.3149 9.11737 19.3149 7.7244V7.05826C19.3149 6.78329 19.0921 6.56021 18.8168 6.56021C18.5419 6.56021 18.3188 6.78329 18.3188 7.05826V7.7244C18.3188 8.56796 17.6324 9.25433 16.7888 9.25433C16.4786 9.25433 16.1876 9.37495 15.9704 9.59337C15.7518 9.81204 15.6314 10.1028 15.6314 10.4118V12.7661C15.6311 12.7772 15.6311 12.7884 15.6314 12.7995V21.0752L13.0701 22.6103C12.7093 22.4033 12.2963 22.2917 11.8774 22.2917H8.9057V13.688H11.8774C13.1975 13.688 14.2714 12.6141 14.2714 11.294C14.2714 9.97391 13.1975 8.89999 11.8774 8.89999H11.3557V8.35603C11.3557 7.27823 10.4787 6.40146 9.40089 6.40146H8.9057V5.42534C8.9057 4.85777 8.44397 4.39604 7.8764 4.39604H6.39497C5.82741 4.39604 5.36568 4.85777 5.36568 5.42534V6.40146H4.87048C3.79268 6.40146 2.91565 7.27823 2.91565 8.35603V8.89999H2.394C2.17532 8.89999 1.95872 8.92957 1.74991 8.98767C1.48506 9.0616 1.32994 9.3363 1.40387 9.60141C1.4778 9.86626 1.75224 10.0209 2.01761 9.94719C2.13927 9.91321 2.26585 9.89609 2.394 9.89609H11.8774C12.6483 9.89609 13.2753 10.5231 13.2753 11.294C13.2753 12.0647 12.6483 12.6916 11.8774 12.6916H2.394C1.62306 12.6916 0.996094 12.0647 0.996094 11.294C0.996094 11.2149 1.00284 11.1352 1.01581 11.0579C1.06172 10.7866 0.879105 10.5295 0.608032 10.4836C0.33696 10.4375 0.0796356 10.6203 0.0337219 10.8917C0.0114136 11.024 0 11.1594 0 11.294C0 12.6141 1.07391 13.688 2.394 13.688H5.36568V22.2917H2.394C1.07391 22.2917 0 23.3657 0 24.6857C0 25.3244 0.248764 25.9257 0.701416 26.3791C1.15407 26.831 1.75536 27.0797 2.394 27.0797H2.91591V27.6234C2.91591 28.7015 3.79268 29.5785 4.87022 29.5785H5.36568V30.5547C5.36568 31.1222 5.82741 31.584 6.39497 31.584H7.8764C8.44397 31.584 8.9057 31.1222 8.9057 30.5547V29.5785H8.92542C9.0284 29.7137 9.14175 29.8421 9.26549 29.9627C9.93448 30.6161 10.8022 30.9487 11.6865 30.9487H29.6423C30.6908 30.9487 31.544 30.0955 31.544 29.0468V26.0969H31.8099C33.0177 26.0969 34 25.1143 34 23.9068V12.791C34 12.7853 34 12.7796 34 12.7739ZM6.36177 5.42534C6.36177 5.40718 6.37656 5.39214 6.39497 5.39214H7.8764C7.89482 5.39214 7.90961 5.40718 7.90961 5.42534V6.40146H6.36177V5.42534ZM3.91174 8.89999V8.35603C3.91174 7.82738 4.34183 7.39755 4.87048 7.39755H5.85335H5.86372H5.87384H8.39728H8.40765H8.41803H9.40089C9.92955 7.39755 10.3596 7.82738 10.3596 8.35603V8.89999H3.91174ZM20.8863 19.9504C21.1089 19.9504 21.3091 20.091 21.3851 20.3001C21.9633 21.8954 23.492 22.9672 25.1885 22.9672C26.9212 22.9672 28.4605 21.865 29.0185 20.2246C29.0743 20.0607 29.2283 19.9504 29.4016 19.9504H29.7111C30.1726 19.9504 30.5479 20.3258 30.5479 20.7872V27.0616H23.6526L22.0189 24.7208C21.8617 24.4953 21.5509 24.4401 21.3255 24.5975C21.1001 24.7547 21.0448 25.0652 21.202 25.2909L22.4378 27.0616H21.2427L18.1663 22.6526L19.009 22.1473L20.0625 23.6572C20.1595 23.796 20.3141 23.8705 20.4715 23.8705C20.5699 23.8705 20.6692 23.8414 20.7558 23.7807C20.9815 23.6232 21.0368 23.3127 20.8796 23.0873L19.8194 21.5678C20.1011 21.2503 20.2648 20.8347 20.2648 20.401V19.9504H20.8863ZM18.8674 27.0616L16.4913 23.6564L17.3097 23.1659L20.028 27.0616H18.8674ZM16.4573 27.0616L14.792 24.6751L15.6348 24.1701L17.6526 27.0618H16.4573V27.0616ZM11.8447 24.506C11.8701 24.5522 11.8992 24.5968 11.9316 24.6391C12.2634 25.0707 12.7661 25.3018 13.2779 25.3018C13.496 25.3018 13.716 25.2598 13.9251 25.1732L15.2428 27.0616H9.252C9.37444 26.3615 9.79726 25.7332 10.4162 25.3625L11.8447 24.506ZM19.2687 20.0568V20.4012C19.2687 20.663 19.1307 20.9091 18.9081 21.0464C18.8993 21.0516 18.8905 21.0567 18.8819 21.0625L17.2099 22.0645C17.2013 22.0694 17.1927 22.0746 17.1842 22.0801L15.5269 23.0733C15.5238 23.0751 15.5204 23.0772 15.5173 23.0793L13.6371 24.2061C13.3318 24.3893 12.9383 24.3143 12.7212 24.0321C12.7186 24.0287 12.7106 24.0181 12.7139 24.0007C12.7168 23.9854 12.7259 23.9784 12.7305 23.9753L13.301 23.6334C13.3074 23.6297 13.3142 23.6256 13.3207 23.6214L19.2464 20.0695C19.2539 20.0651 19.2612 20.0609 19.2687 20.0568ZM6.36177 13.688H7.90961V22.2917H6.36177V13.688ZM3.912 27.6237V27.0797H6.72571C7.00067 27.0797 7.22375 26.8569 7.22375 26.5817C7.22375 26.3067 7.00067 26.0836 6.72571 26.0836H2.394C2.02098 26.0836 1.66975 25.9384 1.40569 25.6748C1.14162 25.41 0.996094 25.0588 0.996094 24.6857C0.996094 23.9151 1.62306 23.2878 2.394 23.2878H11.8774C11.8976 23.2878 11.9176 23.2884 11.9376 23.2891L9.90413 24.5081C8.86497 25.1309 8.21959 26.2702 8.21959 27.4818C8.21959 27.8128 8.26628 28.1332 8.35318 28.4364C8.35422 28.4403 8.35551 28.4442 8.35655 28.4481C8.35733 28.4507 8.35811 28.4533 8.35889 28.4559C8.37108 28.4984 8.38431 28.5404 8.39832 28.5824H4.87022C4.34183 28.5824 3.912 28.1524 3.912 27.6237ZM7.90961 30.5547C7.90961 30.5728 7.89456 30.5879 7.8764 30.5879H6.39497C6.37682 30.5879 6.36177 30.5728 6.36177 30.5547V29.5785H7.90961V30.5547ZM30.5479 29.0468C30.5479 29.5464 30.1417 29.9526 29.6421 29.9526C18.1538 29.9526 11.6735 29.9531 11.6206 29.9518C10.4854 29.922 9.53864 29.1228 9.28339 28.0577H16.1852C16.1896 28.0579 16.1938 28.0579 16.1982 28.0579C16.2026 28.0579 16.207 28.0579 16.2114 28.0577H18.595C18.5995 28.0579 18.6036 28.0579 18.608 28.0579C18.6124 28.0579 18.6168 28.0579 18.6212 28.0577H20.9704C20.9748 28.0579 20.9792 28.0579 20.9833 28.0579C20.9877 28.0579 20.9922 28.0579 20.9966 28.0577H23.3802C23.3846 28.0579 23.3887 28.0579 23.3932 28.0579C23.3976 28.0579 23.402 28.0579 23.4064 28.0577H30.5479V29.0468ZM31.8099 25.1008H31.544V20.7872C31.544 19.7766 30.7217 18.9543 29.7111 18.9543H29.4016C28.8016 18.9543 28.2688 19.3359 28.0753 19.9037C27.6548 21.1403 26.4945 21.9709 25.1885 21.9709C23.9094 21.9709 22.7574 21.1631 22.3213 19.9608C22.1032 19.3587 21.5265 18.9543 20.8861 18.9543C19.7758 18.9828 19.3528 18.8454 18.7343 19.2153L16.6272 20.478V13.5746L24.5999 17.3997C24.6681 17.4324 24.7418 17.4488 24.8154 17.4488C24.8891 17.4488 24.9628 17.4324 25.0307 17.3997L33.0036 13.5744V23.9068C33.0039 24.5651 32.4682 25.1008 31.8099 25.1008Z" fill="#D76F27"/>
<path d="M24.2956 11.1658H23.9609C23.6857 11.1658 23.4629 11.3886 23.4629 11.6638C23.4629 11.9388 23.6857 12.1619 23.9609 12.1619H24.0663V13.8845H24.0056C23.7303 13.8845 23.5075 14.1074 23.5075 14.3826C23.5075 14.6578 23.7303 14.8806 24.0056 14.8806H25.123C25.3983 14.8806 25.6211 14.6578 25.6211 14.3826C25.6211 14.1074 25.3983 13.8845 25.123 13.8845H25.0623V11.9326C25.0623 11.5097 24.7184 11.1658 24.2956 11.1658Z" fill="#D76F27"/>
</g>
<defs>
<clipPath id="clip0_1_419">
<rect width="34" height="34" fill="white"/>
</clipPath>
</defs>
</svg>
