<svg width="73" height="59" viewBox="0 0 73 59" fill="none" xmlns="http://www.w3.org/2000/svg">
<path fill-rule="evenodd" clip-rule="evenodd" d="M11.1388 13.5325C12.0296 12.2087 13.0689 11.032 14.2567 9.85522C15.1475 8.82557 16.0383 7.94302 17.2261 7.20755C18.1169 7.94302 19.3047 8.38429 20.1955 8.97267C19.0077 10.4436 17.82 11.9145 16.9291 13.5325C17.2261 13.6796 17.6715 13.6796 18.1169 13.5325C19.0077 12.2087 20.047 10.7378 21.3832 9.56104C23.0164 10.1494 24.5011 10.7378 26.2828 11.1791L26.4312 11.3262L25.3919 13.5325C25.8373 13.6796 26.1343 13.5325 26.5797 13.5325C26.8766 12.9442 27.1736 12.2087 27.619 11.6203C29.846 12.0616 32.0731 12.3558 34.4486 12.3558C34.7456 12.65 34.5971 13.2384 34.7456 13.5325H35.6364C35.7848 13.2384 35.6364 12.7971 35.7848 12.5029C38.0119 12.3558 40.3874 12.0616 42.466 11.6203H42.7629L43.8022 13.5325C44.0992 13.5325 44.5446 13.6796 44.8415 13.5325L43.8022 11.3262L43.9507 11.1791C45.7323 10.7378 47.3655 10.1494 48.9987 9.41394C50.1865 10.5907 51.3742 12.0616 52.265 13.5325C52.7104 13.5325 53.1559 13.5325 53.4528 13.5325C53.0074 12.65 52.4135 11.7674 51.8196 11.1791C51.3742 10.4436 50.7803 9.70813 50.1865 9.11976V8.82557L52.8589 7.35464L53.1559 7.20755C55.5314 8.97267 57.61 11.1791 59.2431 13.5325C59.6885 13.5325 60.1339 13.6796 60.4309 13.3855C55.3829 5.73662 46.9201 0.882557 37.715 0.147093H37.5665C36.5272 0 35.3394 0 34.1517 0C33.8547 0 33.2609 0 32.8154 0.147093C23.6103 0.882557 15.1475 5.58953 9.80257 13.5325C10.248 13.5325 10.6934 13.6796 11.1388 13.5325ZM26.8766 10.2965C25.2435 9.85522 23.7588 9.41394 22.2741 8.67848V8.53139C24.5011 6.47209 26.7282 4.85406 29.1037 3.53023C29.6976 3.82441 30.2915 3.97151 30.8853 4.26569L30.7369 4.55988C29.2522 6.32499 28.0644 8.2372 27.0251 10.1494L26.8766 10.2965ZM28.0644 10.4436C29.2522 8.38429 30.5884 6.47209 32.0731 4.55988L34.5971 5.00116C34.7456 6.91337 34.5971 9.11976 34.5971 11.1791C33.5578 11.3262 32.5185 11.1791 31.4792 11.1791C30.4399 11.032 29.1037 10.8849 28.0644 10.4436ZM35.7848 11.3262C35.6364 9.26685 35.7848 7.06046 35.7848 5.00116C36.5272 4.85406 37.418 4.70697 38.1604 4.55988C39.6451 6.47209 41.1298 8.38429 42.1691 10.4436C40.0905 11.032 37.8634 11.3262 35.7848 11.3262ZM43.3568 10.1494C42.1691 8.2372 40.8328 6.1779 39.3481 4.26569C39.942 3.97151 40.5359 3.82441 41.1298 3.53023C43.6538 4.70697 46.0293 6.47209 48.1079 8.53139L47.9594 8.67848C46.4747 9.26685 44.99 9.85522 43.3568 10.1494ZM21.0863 8.09011C20.047 7.79592 19.1562 7.20755 18.2654 6.61918V6.47209C20.6409 4.70697 23.3134 3.38314 26.1343 2.50058L26.4312 2.20639V2.35349C26.7282 2.35349 27.0251 2.0593 27.3221 2.35349L27.9159 2.79476C25.5404 4.26569 23.3134 6.03081 21.0863 8.09011ZM49.1472 8.09011C47.217 6.03081 44.8415 4.26569 42.3175 2.79476L43.0599 2.20639C46.3262 2.94186 49.2956 4.41279 52.1166 6.47209L51.9681 6.61918L49.4441 8.09011H49.1472ZM41.5752 1.91221C38.3088 4.26569 32.8154 4.55988 29.2522 2.35349L28.6583 1.76511C32.8154 0.882557 37.5665 0.735464 41.5752 1.76511V1.91221ZM32.37 54.4244C30.7369 52.5122 29.4006 50.5999 28.3613 48.5406L28.5098 48.2465C30.5884 47.9523 32.667 47.6581 34.7456 47.6581V53.9831C34.0032 54.1302 33.1124 54.1302 32.37 54.4244ZM34.7456 46.4813C32.37 46.6284 29.9945 46.9226 27.7675 47.3639L26.7282 45.3046C26.4312 45.3046 25.9858 45.3046 25.6889 45.4517L26.5797 47.6581C24.7981 48.2465 23.1649 48.8348 21.5317 49.4232H21.2348C20.1955 48.2465 19.1562 46.9226 18.4138 45.7459C18.1169 45.0104 17.3746 45.4517 16.9291 45.3046C17.9684 47.0697 19.1562 48.5406 20.344 50.0116C19.3047 50.5999 18.2654 51.3354 17.2261 51.7767C14.8506 50.0116 12.772 47.8052 11.1388 45.4517C10.6934 45.3046 10.3965 45.3046 9.95104 45.4517C12.6235 49.7174 16.9291 53.3947 21.5317 55.6011V55.7482C24.5011 57.2191 27.7675 58.2488 31.1823 58.6901C42.9114 60.3081 54.1951 55.3069 60.7278 45.4517C60.2824 45.3046 59.837 45.3046 59.3916 45.4517C57.9069 47.6581 55.8283 49.8645 53.6013 51.6296H53.1559C52.265 51.0412 51.2257 50.4529 50.3349 49.8645C51.5227 48.3936 52.7104 46.9226 53.6013 45.3046H52.4135C51.5227 46.7755 50.4834 48.2465 49.2956 49.4232C47.514 48.8348 46.0293 48.0994 44.2476 47.6581L44.0992 47.511C44.3961 46.7755 44.8415 46.0401 44.99 45.3046H43.9507L42.9114 47.3639C40.6844 46.9226 38.1604 46.6284 35.9333 46.4813C35.7848 46.1872 35.9333 45.5988 35.7848 45.3046H34.7456C34.7456 45.7459 34.894 46.1872 34.7456 46.4813ZM27.1736 48.6877C28.3613 50.747 29.6976 52.8063 31.0338 54.7186C30.5884 55.0127 29.846 55.1598 29.4006 55.454C26.8766 54.2773 24.3526 52.5122 22.4225 50.4529V50.3058C23.9072 49.5703 25.3919 49.129 27.0251 48.6877H27.1736ZM29.2522 56.9249C32.8154 54.5715 38.3088 54.5715 41.7237 57.072L41.5752 57.2191C37.418 58.1017 32.9639 58.2488 28.9552 57.2191L29.2522 56.9249ZM21.2348 50.8941C23.3134 53.1005 25.6889 54.7186 28.0644 56.1895L27.3221 56.7779C24.0557 56.0424 21.0863 54.5715 18.4138 52.5122C19.3047 51.9238 20.1955 51.3354 21.2348 50.8941ZM35.9333 53.9831C35.9333 51.7767 35.7848 49.8645 35.9333 47.6581C38.1604 47.6581 40.239 47.9523 42.3175 48.3936V48.5406C41.2782 50.5999 39.942 52.5122 38.4573 54.2773C37.8634 54.4244 37.2695 54.1302 36.5272 54.1302L35.9333 53.9831ZM39.7935 54.5715C41.1298 52.6593 42.466 50.747 43.5053 48.8348L43.6538 48.6877C45.2869 49.129 46.7716 49.5703 48.2563 50.3058C47.0686 51.7767 45.4354 52.9534 43.9507 53.9831C43.2084 54.4244 42.3175 55.0127 41.2782 55.454L39.6451 54.7186L39.7935 54.5715ZM42.6145 56.0424C45.1385 54.7186 47.3655 52.9534 49.4441 50.8941C50.4834 51.1883 51.3742 51.7767 52.4135 52.5122C50.1865 54.1302 47.6625 55.3069 45.1385 56.1895L43.3568 56.7779C43.0599 56.6308 42.7629 56.4837 42.6145 56.1895V56.0424Z" fill="white"/>
<path fill-rule="evenodd" clip-rule="evenodd" d="M13.0654 36.1876V22.9492H13.2138L16.9256 22.8021C16.9256 20.7428 17.0741 18.3893 16.9256 16.4771L2.52399 16.33L0.14847 16.4771C0 18.3893 0 20.7428 0.14847 22.8021C1.33623 22.8021 2.67246 22.8021 3.86022 22.9492V35.7463V36.1876L0 36.3347C0 38.394 0 40.4533 0 42.5126H16.9256V36.3347C15.7378 36.1876 14.2531 36.3347 13.0654 36.1876ZM21.0827 18.2423C18.5588 20.0074 17.8164 23.2434 18.5588 26.1853C19.0042 28.8329 21.6766 30.8922 24.0521 31.7748C27.467 32.9515 31.0302 33.8341 34.4451 35.0108C34.8905 35.1579 35.3359 35.5992 35.1874 35.8934C35.1874 36.3347 34.8905 36.4818 34.5935 36.6288C31.0302 37.6585 27.17 36.923 24.4976 34.1283C24.2006 33.8341 24.0521 33.2457 23.7552 32.9515H18.5588C18.4103 36.0405 18.4103 39.5707 18.5588 42.5126H24.3491V40.7474C25.0914 41.0416 25.6853 41.3358 26.2792 41.7771C30.2879 43.3951 35.4843 43.6893 39.3446 41.7771C42.314 40.1591 43.7987 37.0701 43.3533 33.8341C42.9078 30.598 39.9384 27.6562 36.8206 26.9207L27.467 24.2731L26.8731 23.8318C26.5761 23.6847 26.2792 23.2434 26.4277 22.9492C27.17 21.6254 28.8032 22.0667 30.1394 22.0667C32.8119 22.3609 35.4843 23.3905 37.1175 25.744C38.7507 25.744 40.6808 25.744 42.6109 25.744C42.6109 22.655 42.4624 20.0074 42.4624 16.7713C40.8293 16.7713 38.6022 16.7713 36.969 16.9184C36.8206 17.3597 36.969 17.9481 36.8206 18.3893L35.0389 17.5068C30.8818 15.7417 24.943 15.4475 21.0827 18.2423ZM49.8859 18.0952C47.065 19.5661 45.1349 22.3609 44.6895 25.3027C43.6502 30.0097 43.7987 35.7463 47.5104 39.4236C51.8161 43.1009 58.0518 43.9835 63.6937 42.3655C63.8421 42.3655 64.7329 42.0713 65.3268 41.7771H65.4753C67.1085 41.0416 68.8901 39.8649 70.0779 38.2469C72.8988 34.1283 73.0473 27.9504 71.4141 23.2434C70.6717 21.4783 69.187 19.8603 67.5539 18.6835C62.5059 15.4475 54.9339 15.3004 49.8859 18.0952ZM55.0824 32.3632C54.9339 29.7155 54.7854 26.9207 55.5278 24.5672C55.9732 23.0963 57.6064 22.8021 59.0911 22.655C60.5758 22.655 62.0605 22.9492 62.9513 24.126C63.5452 25.0085 63.5452 26.0382 63.6937 27.0678C63.6937 29.2742 63.8421 31.7748 63.3967 33.9812C63.2482 34.8637 62.6544 35.8934 61.6151 36.1876C60.1304 36.923 58.0518 36.6288 56.5671 35.8934C55.3793 35.0108 55.2309 33.687 55.0824 32.3632Z" fill="white"/>
</svg>
